<svg width="227" height="384" viewBox="0 0 227 384" fill="none" xmlns="http://www.w3.org/2000/svg">
<path d="M73.6034 381.82C62.5543 386.283 58.8712 382.085 57.9505 379.428L57.7578 243.18L178.991 308.816C146.241 357.397 84.149 377.56 73.6034 381.82Z" fill="#FFD167"/>
<path d="M192.433 256.292C192.433 274.115 185.286 301.935 178.963 308.842L5.33204 214.846C-4.3248 211.02 1.30836 206.344 5.33204 204.484C60.2265 174.462 172.085 113.463 180.362 109.637C188.639 105.811 191.858 112.294 192.433 116.013V256.292Z" fill="#F67F00"/>
<path d="M57.7578 126.646L57.7578 6.29284C57.7578 -1.99638 64.6555 -0.349161 68.1044 1.5106C102.018 19.5768 171.915 56.8252 180.192 61.2886C188.47 65.752 183.641 70.056 180.192 71.6501C147.716 89.982 80.3479 127.602 70.6911 131.428C61.0342 135.254 58.0452 129.834 57.7578 126.646Z" fill="#D62829"/>
</svg>
