<svg width="123" height="132" viewBox="0 0 123 132" fill="none" xmlns="http://www.w3.org/2000/svg">
<g clip-path="url(#clip0_657_1277)">
<path d="M60.7783 93.941L110.284 100.482L79.4043 82.1783L31.3696 46.3964C28.2653 45.9063 21.4686 45.6122 19.1158 48.357C16.7631 51.1019 20.0961 57.6699 22.0567 60.6108V66.4926L11.2734 76.2956L22.0567 83.1577L0 104.234H16.6651L22.0567 106.195C24.9975 107.012 30.6831 109.136 29.8988 111.096C29.1146 113.057 41.6624 113.22 48.0344 113.057L60.7783 93.941Z" fill="#025740"/>
<path d="M48.0351 42.1551L47.5449 12.256L69.6017 24.0196L68.6214 54.4089L48.0351 42.1551Z" fill="url(#paint0_linear_657_1277)"/>
<path d="M24.998 83.3265L43.1336 61.2698L44.1139 59.7993L65.1903 73.0334L49.5055 98.5212L24.998 83.3265Z" fill="url(#paint1_linear_657_1277)"/>
<path d="M31.8604 0L34.3111 34.8006L48.0353 42.643L47.5452 12.2537L31.8604 0Z" fill="url(#paint2_linear_657_1277)"/>
<path d="M7.84277 74.5046L29.4094 50.9774L44.1139 60.2903L24.998 83.3273L7.84277 74.5046Z" fill="url(#paint3_linear_657_1277)"/>
<path d="M109.794 100.483L31.3701 52.4482C36.8598 50.0955 37.5787 40.3578 37.2519 35.7831C60.289 49.1805 108.912 77.4458 119.107 83.3276C129.302 89.2094 117.146 97.2152 109.794 100.483Z" fill="url(#paint4_linear_657_1277)"/>
<path d="M36.2719 46.0779C34.325 50.9196 33.0224 53.3113 30.8803 52.4499C28.7382 51.5885 26.5723 46.4101 28.5192 41.5684C30.4661 36.7267 34.1302 33.9437 36.2723 34.8051C38.4144 35.6664 38.2189 41.2363 36.2719 46.0779Z" fill="#5A2A20"/>
</g>
<defs>
<linearGradient id="paint0_linear_657_1277" x1="69.6017" y1="32.5972" x2="47.5449" y2="32.5972" gradientUnits="userSpaceOnUse">
<stop offset="0.869852" stop-color="#E23433"/>
<stop offset="0.908933" stop-color="#A10000"/>
</linearGradient>
<linearGradient id="paint1_linear_657_1277" x1="56.3676" y1="88.228" x2="34.801" y2="73.0334" gradientUnits="userSpaceOnUse">
<stop offset="0.920712" stop-color="#F23A3A"/>
<stop offset="1" stop-color="#C40908"/>
</linearGradient>
<linearGradient id="paint2_linear_657_1277" x1="47.5452" y1="20.5863" x2="31.8604" y2="20.5863" gradientUnits="userSpaceOnUse">
<stop offset="0.749125" stop-color="#E6262D"/>
<stop offset="0.760097" stop-color="#AE0A09"/>
</linearGradient>
<linearGradient id="paint3_linear_657_1277" x1="34.801" y1="73.0342" x2="20.0965" y2="61.2706" gradientUnits="userSpaceOnUse">
<stop offset="0.842297" stop-color="#F02E2D"/>
<stop offset="0.892249" stop-color="#FF6A66"/>
</linearGradient>
<linearGradient id="paint4_linear_657_1277" x1="73.523" y1="53.4285" x2="62.2496" y2="74.5049" gradientUnits="userSpaceOnUse">
<stop stop-color="#B97E6C"/>
<stop offset="0.5" stop-color="#A9553D"/>
<stop offset="1" stop-color="#452010"/>
</linearGradient>
<clipPath id="clip0_657_1277">
<rect width="122.692" height="132" fill="white"/>
</clipPath>
</defs>
</svg>
