<svg width="249" height="58" viewBox="0 0 249 58" fill="none" xmlns="http://www.w3.org/2000/svg">
<path d="M9.01074 1.73926H239.987C244.635 1.73926 248.403 5.5075 248.403 10.1553V46.1963C248.403 50.844 244.635 54.6113 239.987 54.6113H9.01074C4.36299 54.6113 0.594764 50.844 0.594727 46.1963V10.1553C0.594727 5.5075 4.36297 1.73926 9.01074 1.73926Z" fill="url(#paint0_linear_333_1167)" stroke="#B0E57F" stroke-width="1.18959"/>
<path d="M0.202965 7.91076C0.202965 7.91076 2.06579 2.16054 4.10704 1.13894C6.14829 0.117334 8.32935 0 8.32935 0H239.05C245 -3.19453e-05 248.997 1.06363 248.997 9.04087C248.997 7.91076 245.137 2.65908 242.526 2.65908L9.17374 2.82527C9.17374 2.82527 6.51394 2.81644 4.8531 3.94655C2.55459 5.51056 0.202965 7.91076 0.202965 7.91076Z" fill="url(#paint1_linear_333_1167)"/>
<path d="M249 47.5351C249 47.5351 248.242 52.8805 245.659 53.9281C243.075 54.9757 241.423 54.9922 241.423 54.9922H9.97923C4.01117 54.9922 0.00140381 53.9984 0.00140381 46.5453C0.00140381 47.6011 2.5005 51.8246 6.49266 52.5078L240.576 52.3525C240.576 52.3525 243.244 52.3608 244.91 51.3049C247.216 49.8436 249 47.5351 249 47.5351Z" fill="url(#paint2_linear_333_1167)"/>
<path d="M248.545 49.6484C248.545 49.6484 248.166 54.9937 245.584 56.0414C243.001 57.089 241.349 57.1055 241.349 57.1055H9.97562C4.00935 57.1055 0.000823975 56.1117 0.000823975 48.6585C0.000823975 49.7144 2.49915 53.9379 6.49008 54.6211L240.503 54.4658C240.503 54.4658 243.17 54.474 244.835 53.4182C247.14 51.9569 248.545 49.6484 248.545 49.6484Z" fill="black"/>
<g filter="url(#filter0_d_333_1167)">
<mask id="path-6-outside-1_333_1167" maskUnits="userSpaceOnUse" x="58.8584" y="15.7734" width="135" height="22" fill="black">
<rect fill="white" x="58.8584" y="15.7734" width="135" height="22"/>
<path d="M71.1218 28.8854C70.5458 28.3814 68.3858 28.2614 67.3778 28.6214C67.1378 30.4454 67.2578 32.0294 67.4018 33.0374C68.3138 33.2294 69.6818 32.9654 70.4738 32.7254C71.0498 31.8374 71.1698 30.4694 71.1218 28.8854ZM70.5698 24.1094C70.6178 22.8854 70.2818 21.6374 69.7538 20.8934C69.0578 20.7254 68.0978 20.6534 67.3778 20.9414C67.3058 22.1414 67.1858 23.7974 67.2578 24.4694C67.8818 24.6854 70.0898 24.5174 70.5698 24.1094ZM78.0338 28.6934C77.8418 30.9254 77.0258 34.8134 76.0418 35.7254C74.4578 36.0854 71.3618 36.5414 68.9378 36.6614C66.1298 36.8054 63.4178 36.8294 61.2578 36.3494C60.9218 33.9254 61.2098 26.9894 61.3298 21.7334C60.9938 21.6614 60.1538 21.8294 59.7218 21.5894C59.7698 20.0774 59.9138 18.7334 60.0578 17.5334C63.7058 16.8374 70.8578 16.6454 75.4658 17.3174C76.0178 18.0614 76.9058 21.0134 77.0498 22.5014C76.2578 23.7494 75.1298 25.0934 73.9538 25.7174C75.1298 26.2214 77.0018 27.3014 78.0338 28.6934ZM88.8642 27.8054C88.9602 27.0134 88.5762 24.9494 88.5282 24.7094C88.0002 24.5174 85.8642 24.8054 85.2642 25.1894C85.1682 26.2934 85.1202 27.9254 85.2882 28.6934C86.2482 28.6694 88.0962 28.5494 88.8642 27.8054ZM94.6962 35.3414C93.9042 35.7734 91.0002 36.3014 89.4162 36.3494C88.8882 35.7734 87.7602 34.0214 86.6562 32.6774L85.2402 33.0614C85.1682 34.2374 85.2642 35.0294 85.1922 36.0134C84.2562 36.2534 82.1682 36.4934 80.0562 36.3014C79.8402 33.7334 79.6002 22.3334 80.1042 20.6534C80.8722 20.4374 83.3202 20.0774 85.1202 20.2694V21.4214C86.8722 20.9894 90.2322 20.6774 91.9362 20.7494C93.2802 21.8294 94.8642 25.4534 94.6002 28.1414C94.0962 28.7174 93.0882 29.7494 92.0802 30.6374C92.6802 31.5494 94.4322 34.7654 94.6962 35.3414ZM106.028 31.4534C106.076 29.5814 106.292 27.1814 105.98 24.7574C104.78 24.6374 103.652 24.5654 102.38 24.9974C102.02 25.6934 101.852 30.1814 102.02 31.7894C103.052 32.0054 105.284 31.7174 106.028 31.4534ZM111.452 23.5814C111.884 25.6214 111.788 32.5334 110.612 34.9334C106.34 35.9654 102.932 36.0374 100.388 35.9894C98.8998 35.3894 97.3398 33.8534 96.2598 32.2934C96.1878 28.6454 96.4758 24.8294 97.7238 21.8774C100.076 21.2774 106.028 20.7014 108.38 21.2534C109.364 21.9254 110.996 23.0294 111.452 23.5814ZM126.089 32.9414C126.137 33.9974 125.873 35.8934 125.417 36.2054C121.841 36.1574 117.449 36.0614 114.065 34.8854C112.601 33.1574 113.129 24.6134 114.761 22.2374C116.729 21.2054 124.409 20.3414 125.729 20.9174C125.801 21.4694 125.969 22.7654 125.729 24.0854C123.353 24.3014 122.057 24.1574 120.233 24.8774C119.705 26.6294 119.153 30.9254 119.897 32.1734C121.097 32.9174 125.273 32.6054 126.089 32.9414ZM141.997 20.3894C142.333 24.1334 141.973 34.0214 141.901 36.2294C140.965 36.3974 137.653 36.3494 137.053 36.3014C136.957 34.9094 137.269 33.0374 136.957 31.5014C136.309 31.4534 133.525 31.2134 133.189 31.8374C133.069 33.4934 132.973 34.6694 133.045 36.3254C131.557 36.6134 129.613 36.6374 128.005 36.5174C127.573 33.9734 127.813 23.5814 127.909 20.8454C129.109 20.5094 132.997 20.3894 133.285 20.7254C133.021 22.2374 133.093 24.3494 133.093 25.8614C134.125 26.1254 136.597 25.7894 137.101 25.5974C137.317 24.6854 137.029 22.0694 137.125 20.7254C137.845 20.3654 141.205 20.2214 141.997 20.3894ZM158.955 21.1094C158.883 24.2534 158.763 32.6774 158.859 35.4614C158.187 35.8454 155.235 36.1094 153.747 36.0614L153.699 34.9094C151.851 35.3894 149.307 35.5574 146.595 35.7974C145.971 35.1974 144.387 33.4694 144.075 32.6294C144.051 30.3494 144.531 23.5334 144.819 21.6374C146.067 21.2054 148.803 20.9414 150.267 20.9174C149.955 24.8054 149.835 27.6374 149.835 30.9734C150.867 31.0934 152.667 30.9734 153.435 30.3974C153.411 27.4934 153.363 24.0374 153.411 21.3974C155.235 21.0134 157.251 20.9654 158.955 21.1094ZM170.333 27.8054C170.429 27.0134 170.045 24.9494 169.997 24.7094C169.469 24.5174 167.333 24.8054 166.733 25.1894C166.637 26.2934 166.589 27.9254 166.757 28.6934C167.717 28.6694 169.565 28.5494 170.333 27.8054ZM176.165 35.3414C175.373 35.7734 172.469 36.3014 170.885 36.3494C170.357 35.7734 169.229 34.0214 168.125 32.6774L166.709 33.0614C166.637 34.2374 166.733 35.0294 166.661 36.0134C165.725 36.2534 163.637 36.4934 161.525 36.3014C161.309 33.7334 161.069 22.3334 161.573 20.6534C162.341 20.4374 164.789 20.0774 166.589 20.2694V21.4214C168.341 20.9894 171.701 20.6774 173.405 20.7494C174.749 21.8294 176.333 25.4534 176.069 28.1414C175.565 28.7174 174.557 29.7494 173.549 30.6374C174.149 31.5494 175.901 34.7654 176.165 35.3414ZM187.329 26.7014C187.377 26.0054 187.353 24.7814 187.017 24.1814C186.153 24.2294 185.505 24.1814 184.329 24.6374C184.113 25.3814 183.873 26.1494 183.753 27.1334C185.145 27.1814 186.441 26.9654 187.329 26.7014ZM192.969 29.7734C191.337 30.0374 186.513 30.3974 183.417 30.4934C183.465 30.9494 183.585 31.3094 183.753 31.5974C184.953 32.3414 190.353 32.3654 191.169 32.7014C191.217 33.7574 190.953 35.9894 190.521 36.3014C186.969 36.2534 182.025 35.8454 178.641 34.6694C177.177 32.9414 177.705 24.3734 179.337 21.9974C181.305 20.9654 189.993 20.1014 191.313 20.6774C192.513 22.6694 193.041 26.8934 192.969 29.7734Z"/>
</mask>
<path d="M71.1218 28.8854C70.5458 28.3814 68.3858 28.2614 67.3778 28.6214C67.1378 30.4454 67.2578 32.0294 67.4018 33.0374C68.3138 33.2294 69.6818 32.9654 70.4738 32.7254C71.0498 31.8374 71.1698 30.4694 71.1218 28.8854ZM70.5698 24.1094C70.6178 22.8854 70.2818 21.6374 69.7538 20.8934C69.0578 20.7254 68.0978 20.6534 67.3778 20.9414C67.3058 22.1414 67.1858 23.7974 67.2578 24.4694C67.8818 24.6854 70.0898 24.5174 70.5698 24.1094ZM78.0338 28.6934C77.8418 30.9254 77.0258 34.8134 76.0418 35.7254C74.4578 36.0854 71.3618 36.5414 68.9378 36.6614C66.1298 36.8054 63.4178 36.8294 61.2578 36.3494C60.9218 33.9254 61.2098 26.9894 61.3298 21.7334C60.9938 21.6614 60.1538 21.8294 59.7218 21.5894C59.7698 20.0774 59.9138 18.7334 60.0578 17.5334C63.7058 16.8374 70.8578 16.6454 75.4658 17.3174C76.0178 18.0614 76.9058 21.0134 77.0498 22.5014C76.2578 23.7494 75.1298 25.0934 73.9538 25.7174C75.1298 26.2214 77.0018 27.3014 78.0338 28.6934ZM88.8642 27.8054C88.9602 27.0134 88.5762 24.9494 88.5282 24.7094C88.0002 24.5174 85.8642 24.8054 85.2642 25.1894C85.1682 26.2934 85.1202 27.9254 85.2882 28.6934C86.2482 28.6694 88.0962 28.5494 88.8642 27.8054ZM94.6962 35.3414C93.9042 35.7734 91.0002 36.3014 89.4162 36.3494C88.8882 35.7734 87.7602 34.0214 86.6562 32.6774L85.2402 33.0614C85.1682 34.2374 85.2642 35.0294 85.1922 36.0134C84.2562 36.2534 82.1682 36.4934 80.0562 36.3014C79.8402 33.7334 79.6002 22.3334 80.1042 20.6534C80.8722 20.4374 83.3202 20.0774 85.1202 20.2694V21.4214C86.8722 20.9894 90.2322 20.6774 91.9362 20.7494C93.2802 21.8294 94.8642 25.4534 94.6002 28.1414C94.0962 28.7174 93.0882 29.7494 92.0802 30.6374C92.6802 31.5494 94.4322 34.7654 94.6962 35.3414ZM106.028 31.4534C106.076 29.5814 106.292 27.1814 105.98 24.7574C104.78 24.6374 103.652 24.5654 102.38 24.9974C102.02 25.6934 101.852 30.1814 102.02 31.7894C103.052 32.0054 105.284 31.7174 106.028 31.4534ZM111.452 23.5814C111.884 25.6214 111.788 32.5334 110.612 34.9334C106.34 35.9654 102.932 36.0374 100.388 35.9894C98.8998 35.3894 97.3398 33.8534 96.2598 32.2934C96.1878 28.6454 96.4758 24.8294 97.7238 21.8774C100.076 21.2774 106.028 20.7014 108.38 21.2534C109.364 21.9254 110.996 23.0294 111.452 23.5814ZM126.089 32.9414C126.137 33.9974 125.873 35.8934 125.417 36.2054C121.841 36.1574 117.449 36.0614 114.065 34.8854C112.601 33.1574 113.129 24.6134 114.761 22.2374C116.729 21.2054 124.409 20.3414 125.729 20.9174C125.801 21.4694 125.969 22.7654 125.729 24.0854C123.353 24.3014 122.057 24.1574 120.233 24.8774C119.705 26.6294 119.153 30.9254 119.897 32.1734C121.097 32.9174 125.273 32.6054 126.089 32.9414ZM141.997 20.3894C142.333 24.1334 141.973 34.0214 141.901 36.2294C140.965 36.3974 137.653 36.3494 137.053 36.3014C136.957 34.9094 137.269 33.0374 136.957 31.5014C136.309 31.4534 133.525 31.2134 133.189 31.8374C133.069 33.4934 132.973 34.6694 133.045 36.3254C131.557 36.6134 129.613 36.6374 128.005 36.5174C127.573 33.9734 127.813 23.5814 127.909 20.8454C129.109 20.5094 132.997 20.3894 133.285 20.7254C133.021 22.2374 133.093 24.3494 133.093 25.8614C134.125 26.1254 136.597 25.7894 137.101 25.5974C137.317 24.6854 137.029 22.0694 137.125 20.7254C137.845 20.3654 141.205 20.2214 141.997 20.3894ZM158.955 21.1094C158.883 24.2534 158.763 32.6774 158.859 35.4614C158.187 35.8454 155.235 36.1094 153.747 36.0614L153.699 34.9094C151.851 35.3894 149.307 35.5574 146.595 35.7974C145.971 35.1974 144.387 33.4694 144.075 32.6294C144.051 30.3494 144.531 23.5334 144.819 21.6374C146.067 21.2054 148.803 20.9414 150.267 20.9174C149.955 24.8054 149.835 27.6374 149.835 30.9734C150.867 31.0934 152.667 30.9734 153.435 30.3974C153.411 27.4934 153.363 24.0374 153.411 21.3974C155.235 21.0134 157.251 20.9654 158.955 21.1094ZM170.333 27.8054C170.429 27.0134 170.045 24.9494 169.997 24.7094C169.469 24.5174 167.333 24.8054 166.733 25.1894C166.637 26.2934 166.589 27.9254 166.757 28.6934C167.717 28.6694 169.565 28.5494 170.333 27.8054ZM176.165 35.3414C175.373 35.7734 172.469 36.3014 170.885 36.3494C170.357 35.7734 169.229 34.0214 168.125 32.6774L166.709 33.0614C166.637 34.2374 166.733 35.0294 166.661 36.0134C165.725 36.2534 163.637 36.4934 161.525 36.3014C161.309 33.7334 161.069 22.3334 161.573 20.6534C162.341 20.4374 164.789 20.0774 166.589 20.2694V21.4214C168.341 20.9894 171.701 20.6774 173.405 20.7494C174.749 21.8294 176.333 25.4534 176.069 28.1414C175.565 28.7174 174.557 29.7494 173.549 30.6374C174.149 31.5494 175.901 34.7654 176.165 35.3414ZM187.329 26.7014C187.377 26.0054 187.353 24.7814 187.017 24.1814C186.153 24.2294 185.505 24.1814 184.329 24.6374C184.113 25.3814 183.873 26.1494 183.753 27.1334C185.145 27.1814 186.441 26.9654 187.329 26.7014ZM192.969 29.7734C191.337 30.0374 186.513 30.3974 183.417 30.4934C183.465 30.9494 183.585 31.3094 183.753 31.5974C184.953 32.3414 190.353 32.3654 191.169 32.7014C191.217 33.7574 190.953 35.9894 190.521 36.3014C186.969 36.2534 182.025 35.8454 178.641 34.6694C177.177 32.9414 177.705 24.3734 179.337 21.9974C181.305 20.9654 189.993 20.1014 191.313 20.6774C192.513 22.6694 193.041 26.8934 192.969 29.7734Z" fill="white"/>
<path d="M71.1218 28.8854L71.8274 28.8641L71.8181 28.5567L71.5866 28.3542L71.1218 28.8854ZM67.3778 28.6214L67.1404 27.9567L66.7343 28.1018L66.678 28.5294L67.3778 28.6214ZM67.4018 33.0374L66.7031 33.1373L66.7729 33.6264L67.2564 33.7282L67.4018 33.0374ZM70.4738 32.7254L70.6785 33.401L70.9256 33.3261L71.066 33.1096L70.4738 32.7254ZM70.5698 24.1094L71.027 24.6473L71.263 24.4466L71.2751 24.1371L70.5698 24.1094ZM69.7538 20.8934L70.3295 20.4849L70.1765 20.2693L69.9195 20.2073L69.7538 20.8934ZM67.3778 20.9414L67.1157 20.2861L66.7001 20.4523L66.6732 20.8992L67.3778 20.9414ZM67.2578 24.4694L66.556 24.5446L66.6037 24.99L67.0269 25.1365L67.2578 24.4694ZM78.0338 28.6934L78.7371 28.7539L78.76 28.4877L78.6009 28.2731L78.0338 28.6934ZM76.0418 35.7254L76.1983 36.4137L76.3828 36.3718L76.5217 36.2431L76.0418 35.7254ZM68.9378 36.6614L68.9029 35.9564L68.9017 35.9565L68.9378 36.6614ZM61.2578 36.3494L60.5587 36.4464L60.626 36.9321L61.1047 37.0385L61.2578 36.3494ZM61.3298 21.7334L62.0355 21.7495L62.0488 21.1656L61.4777 21.0432L61.3298 21.7334ZM59.7218 21.5894L59.0163 21.567L59.0027 21.9974L59.379 22.2065L59.7218 21.5894ZM60.0578 17.5334L59.9256 16.8401L59.4185 16.9368L59.357 17.4493L60.0578 17.5334ZM75.4658 17.3174L76.0327 16.8969L75.8579 16.6613L75.5677 16.619L75.4658 17.3174ZM77.0498 22.5014L77.6458 22.8797L77.7758 22.6749L77.7524 22.4334L77.0498 22.5014ZM73.9538 25.7174L73.623 25.0939L72.3201 25.7852L73.6758 26.3662L73.9538 25.7174ZM71.1218 28.8854L71.5866 28.3542C71.3147 28.1163 70.9391 27.9811 70.6104 27.8971C70.2587 27.8072 69.8583 27.7511 69.4576 27.7251C68.6774 27.6743 67.775 27.7301 67.1404 27.9567L67.3778 28.6214L67.6152 29.2862C67.9887 29.1528 68.6703 29.0886 69.366 29.1338C69.7034 29.1557 70.0139 29.2017 70.2608 29.2648C70.3838 29.2963 70.4815 29.3296 70.554 29.3613C70.6301 29.3946 70.6573 29.4169 70.657 29.4166L71.1218 28.8854ZM67.3778 28.6214L66.678 28.5294C66.4275 30.4333 66.5526 32.0842 66.7031 33.1373L67.4018 33.0374L68.1006 32.9376C67.963 31.9747 67.8482 30.4576 68.0777 28.7135L67.3778 28.6214ZM67.4018 33.0374L67.2564 33.7282C67.8264 33.8482 68.488 33.8194 69.0736 33.7434C69.6705 33.666 70.2486 33.5312 70.6785 33.401L70.4738 32.7254L70.2691 32.0499C69.907 32.1596 69.4052 32.2769 68.892 32.3434C68.3677 32.4115 67.8893 32.4187 67.5472 32.3467L67.4018 33.0374ZM70.4738 32.7254L71.066 33.1096C71.774 32.018 71.8752 30.4425 71.8274 28.8641L71.1218 28.8854L70.4163 28.9068C70.4645 30.4963 70.3256 31.6568 69.8817 32.3413L70.4738 32.7254ZM70.5698 24.1094L71.2751 24.1371C71.3278 22.7955 70.9675 21.384 70.3295 20.4849L69.7538 20.8934L69.1782 21.3019C69.5962 21.8909 69.9079 22.9754 69.8645 24.0818L70.5698 24.1094ZM69.7538 20.8934L69.9195 20.2073C69.1663 20.0255 68.0351 19.9183 67.1157 20.2861L67.3778 20.9414L67.64 21.5968C68.1606 21.3886 68.9493 21.4254 69.5882 21.5796L69.7538 20.8934ZM67.3778 20.9414L66.6732 20.8992C66.6377 21.4917 66.589 22.2164 66.5587 22.8708C66.5292 23.5092 66.5133 24.1457 66.556 24.5446L67.2578 24.4694L67.9597 24.3942C67.9304 24.1212 67.9385 23.5937 67.9689 22.9361C67.9986 22.2945 68.046 21.5912 68.0824 20.9837L67.3778 20.9414ZM67.2578 24.4694L67.0269 25.1365C67.2916 25.2281 67.6387 25.2587 67.9518 25.2673C68.2869 25.2764 68.6656 25.2614 69.035 25.2261C69.4032 25.1909 69.7792 25.1338 70.1058 25.0537C70.3955 24.9826 70.7697 24.866 71.027 24.6473L70.5698 24.1094L70.1127 23.5716C70.13 23.5569 70.0482 23.6143 69.7694 23.6827C69.5275 23.742 69.2224 23.79 68.9006 23.8208C68.5801 23.8514 68.2598 23.8634 67.9903 23.8561C67.699 23.8481 67.5361 23.8188 67.4887 23.8024L67.2578 24.4694ZM78.0338 28.6934L77.3306 28.6329C77.238 29.7089 76.9928 31.2003 76.6512 32.5287C76.4805 33.1926 76.2898 33.7997 76.0888 34.2864C75.878 34.797 75.6897 35.0894 75.562 35.2077L76.0418 35.7254L76.5217 36.2431C76.886 35.9055 77.1687 35.3699 77.3936 34.8252C77.6284 34.2566 77.8382 33.5813 78.0185 32.8802C78.3789 31.4785 78.6376 29.91 78.7371 28.7539L78.0338 28.6934ZM76.0418 35.7254L75.8854 35.0371C74.3421 35.3879 71.2868 35.8384 68.9029 35.9564L68.9378 36.6614L68.9727 37.3664C71.4369 37.2444 74.5736 36.783 76.1983 36.4137L76.0418 35.7254ZM68.9378 36.6614L68.9017 35.9565C66.0932 36.1005 63.4677 36.1174 61.411 35.6604L61.2578 36.3494L61.1047 37.0385C63.368 37.5414 66.1665 37.5103 68.974 37.3664L68.9378 36.6614ZM61.2578 36.3494L61.957 36.2525C61.798 35.1057 61.7833 32.8253 61.8286 30.1152C61.8736 27.4214 61.9752 24.3911 62.0355 21.7495L61.3298 21.7334L60.6242 21.7173C60.5645 24.3317 60.4621 27.3975 60.4171 30.0916C60.3723 32.7696 60.3816 35.1692 60.5587 36.4464L61.2578 36.3494ZM61.3298 21.7334L61.4777 21.0432C61.3063 21.0065 61.1168 21.0067 60.9876 21.0085C60.9148 21.0096 60.8378 21.0119 60.767 21.014C60.6938 21.0161 60.624 21.0179 60.5549 21.0186C60.4141 21.02 60.2966 21.016 60.2005 21.0033C60.0999 20.99 60.0641 20.9721 60.0646 20.9724L59.7218 21.5894L59.379 22.2065C59.7794 22.4289 60.2797 22.4331 60.5688 22.4303C60.6526 22.4294 60.7343 22.4272 60.8076 22.4251C60.8833 22.4229 60.9476 22.4209 61.0076 22.4201C61.1439 22.4182 61.1854 22.4244 61.1819 22.4236L61.3298 21.7334ZM59.7218 21.5894L60.4273 21.6118C60.4743 20.1309 60.6154 18.8111 60.7587 17.6175L60.0578 17.5334L59.357 17.4493C59.2122 18.6558 59.0653 20.0239 59.0163 21.567L59.7218 21.5894ZM60.0578 17.5334L60.1901 18.2268C63.7574 17.5462 70.8302 17.3547 75.364 18.0159L75.4658 17.3174L75.5677 16.619C70.8855 15.9362 63.6543 16.1287 59.9256 16.8401L60.0578 17.5334ZM75.4658 17.3174L74.899 17.738C74.9794 17.8464 75.1108 18.0979 75.2713 18.496C75.4248 18.8766 75.5853 19.3414 75.7355 19.8356C76.0389 20.8344 76.2818 21.8932 76.3473 22.5694L77.0498 22.5014L77.7524 22.4334C77.6739 21.6217 77.4007 20.4605 77.0862 19.4252C76.9274 18.9024 76.7534 18.3968 76.5806 17.9681C76.4149 17.557 76.2283 17.1605 76.0327 16.8969L75.4658 17.3174ZM77.0498 22.5014L76.4539 22.1232C75.6815 23.3403 74.6343 24.5573 73.623 25.0939L73.9538 25.7174L74.2847 26.341C75.6254 25.6296 76.8342 24.1585 77.6458 22.8797L77.0498 22.5014ZM73.9538 25.7174L73.6758 26.3662C74.8085 26.8517 76.5449 27.8703 77.4668 29.1138L78.0338 28.6934L78.6009 28.2731C77.4588 26.7326 75.4512 25.5912 74.2319 25.0687L73.9538 25.7174ZM88.8642 27.8054L89.3553 28.3124L89.5349 28.1385L89.5649 27.8904L88.8642 27.8054ZM88.5282 24.7094L89.2204 24.571L89.1425 24.1817L88.7694 24.0461L88.5282 24.7094ZM85.2642 25.1894L84.8837 24.5949L84.5911 24.7822L84.561 25.1283L85.2642 25.1894ZM85.2882 28.6934L84.5987 28.8443L84.7232 29.4136L85.3059 29.3991L85.2882 28.6934ZM94.6962 35.3414L95.0342 35.9611L95.6122 35.6458L95.3379 35.0473L94.6962 35.3414ZM89.4162 36.3494L88.8959 36.8264L89.1144 37.0648L89.4376 37.055L89.4162 36.3494ZM86.6562 32.6774L87.2016 32.2294L86.912 31.8767L86.4715 31.9962L86.6562 32.6774ZM85.2402 33.0614L85.0555 32.3802L84.5666 32.5128L84.5357 33.0183L85.2402 33.0614ZM85.1922 36.0134L85.3675 36.6972L85.8591 36.5711L85.8962 36.0649L85.1922 36.0134ZM80.0562 36.3014L79.3528 36.3606L79.4025 36.9508L79.9923 37.0044L80.0562 36.3014ZM80.1042 20.6534L79.9131 19.9739L79.5396 20.079L79.4281 20.4506L80.1042 20.6534ZM85.1202 20.2694H85.8261V19.6349L85.1951 19.5676L85.1202 20.2694ZM85.1202 21.4214H84.4144V22.3225L85.2892 22.1068L85.1202 21.4214ZM91.9362 20.7494L92.3784 20.1992L92.1976 20.054L91.966 20.0442L91.9362 20.7494ZM94.6002 28.1414L95.1314 28.6062L95.2806 28.4358L95.3027 28.2104L94.6002 28.1414ZM92.0802 30.6374L91.6136 30.1078L91.1535 30.5131L91.4905 31.0254L92.0802 30.6374ZM88.8642 27.8054L89.5649 27.8904C89.6259 27.3872 89.5369 26.5804 89.4493 25.9529C89.3571 25.292 89.2466 24.7022 89.2204 24.571L88.5282 24.7094L87.8361 24.8479C87.8578 24.9567 87.9633 25.5189 88.0511 26.148C88.1436 26.8104 88.1985 27.4316 88.1635 27.7205L88.8642 27.8054ZM88.5282 24.7094L88.7694 24.0461C88.5012 23.9486 88.1493 23.9377 87.8649 23.9437C87.5467 23.9505 87.1826 23.9836 86.8238 24.0346C86.4648 24.0857 86.0968 24.1567 85.7714 24.2434C85.465 24.325 85.1303 24.4371 84.8837 24.5949L85.2642 25.1894L85.6447 25.784C85.6982 25.7497 85.8554 25.6819 86.1347 25.6075C86.3951 25.5382 86.7066 25.4772 87.0226 25.4323C87.3388 25.3873 87.6452 25.3604 87.8948 25.3551C88.1781 25.3491 88.2912 25.3743 88.287 25.3728L88.5282 24.7094ZM85.2642 25.1894L84.561 25.1283C84.5115 25.6973 84.4745 26.4008 84.4714 27.0641C84.4683 27.7105 84.4967 28.3781 84.5987 28.8443L85.2882 28.6934L85.9778 28.5426C85.9117 28.2407 85.8801 27.7083 85.8831 27.0707C85.886 26.4501 85.9209 25.7855 85.9674 25.2506L85.2642 25.1894ZM85.2882 28.6934L85.3059 29.3991C85.7989 29.3867 86.5445 29.3496 87.2772 29.2134C87.9757 29.0836 88.8116 28.8392 89.3553 28.3124L88.8642 27.8054L88.3731 27.2985C88.1488 27.5157 87.6767 27.7033 87.0192 27.8255C86.396 27.9413 85.7376 27.9761 85.2706 27.9878L85.2882 28.6934ZM94.6962 35.3414L94.3582 34.7218C94.2378 34.7874 93.9765 34.8841 93.5747 34.9933C93.1892 35.0981 92.7216 35.2021 92.223 35.2957C91.22 35.4839 90.137 35.6214 89.3948 35.6439L89.4162 36.3494L89.4376 37.055C90.2794 37.0295 91.4405 36.8789 92.4834 36.6832C93.0078 36.5848 93.5137 36.4728 93.945 36.3556C94.36 36.2428 94.7586 36.1114 95.0342 35.9611L94.6962 35.3414ZM89.4162 36.3494L89.9365 35.8725C89.7094 35.6247 89.3288 35.0917 88.8259 34.3902C88.3415 33.7144 87.7706 32.922 87.2016 32.2294L86.6562 32.6774L86.1108 33.1255C86.6458 33.7769 87.1909 34.5325 87.6785 35.2127C88.1477 35.8672 88.595 36.4981 88.8959 36.8264L89.4162 36.3494ZM86.6562 32.6774L86.4715 31.9962L85.0555 32.3802L85.2402 33.0614L85.425 33.7427L86.841 33.3587L86.6562 32.6774ZM85.2402 33.0614L84.5357 33.0183C84.4979 33.6351 84.5044 34.1505 84.5104 34.6185C84.5165 35.09 84.5217 35.5047 84.4882 35.9619L85.1922 36.0134L85.8962 36.0649C85.9347 35.5382 85.928 35.0649 85.922 34.6004C85.916 34.1324 85.9105 33.6638 85.9447 33.1046L85.2402 33.0614ZM85.1922 36.0134L85.0169 35.3297C84.1655 35.548 82.1589 35.7838 80.1201 35.5985L80.0562 36.3014L79.9923 37.0044C82.1776 37.2031 84.3469 36.9589 85.3675 36.6972L85.1922 36.0134ZM80.0562 36.3014L80.7596 36.2423C80.654 34.9874 80.54 31.5187 80.516 28.1394C80.5041 26.4535 80.5146 24.8014 80.5592 23.4697C80.5815 22.8033 80.6121 22.2238 80.6518 21.7636C80.6932 21.285 80.7405 20.989 80.7803 20.8563L80.1042 20.6534L79.4281 20.4506C79.342 20.7378 79.2865 21.1656 79.2453 21.6421C79.2026 22.1369 79.171 22.7437 79.1483 23.4225C79.1028 24.781 79.0923 26.4543 79.1044 28.1494C79.1284 31.5321 79.2424 35.0475 79.3528 36.3606L80.0562 36.3014ZM80.1042 20.6534L80.2953 21.3329C80.6228 21.2408 81.3809 21.1019 82.2952 21.0108C83.2052 20.9201 84.2134 20.8826 85.0453 20.9713L85.1202 20.2694L85.1951 19.5676C84.227 19.4643 83.1112 19.5108 82.1552 19.6061C81.2035 19.7009 80.3536 19.8501 79.9131 19.9739L80.1042 20.6534ZM85.1202 20.2694H84.4144V21.4214H85.1202H85.8261V20.2694H85.1202ZM85.1202 21.4214L85.2892 22.1068C86.9731 21.6915 90.2661 21.3854 91.9064 21.4547L91.9362 20.7494L91.966 20.0442C90.1984 19.9695 86.7713 20.2873 84.9512 20.7361L85.1202 21.4214ZM91.9362 20.7494L91.4941 21.2997C92.0214 21.7234 92.6976 22.7607 93.2126 24.0964C93.7204 25.4132 94.0153 26.8758 93.8977 28.0724L94.6002 28.1414L95.3027 28.2104C95.4492 26.719 95.084 25.0257 94.5298 23.5885C93.9829 22.1702 93.195 20.8555 92.3784 20.1992L91.9362 20.7494ZM94.6002 28.1414L94.069 27.6766C93.5861 28.2285 92.5999 29.2389 91.6136 30.1078L92.0802 30.6374L92.5468 31.1671C93.5765 30.26 94.6063 29.2064 95.1314 28.6062L94.6002 28.1414ZM92.0802 30.6374L91.4905 31.0254C92.0699 31.906 93.8047 35.0905 94.0545 35.6355L94.6962 35.3414L95.3379 35.0473C95.0597 34.4404 93.2905 31.1928 92.6699 30.2495L92.0802 30.6374ZM106.028 31.4534L106.264 32.1187L106.721 31.9564L106.733 31.4715L106.028 31.4534ZM105.98 24.7574L106.68 24.6673L106.608 24.1109L106.05 24.0551L105.98 24.7574ZM102.38 24.9974L102.153 24.3291L101.883 24.4205L101.753 24.6732L102.38 24.9974ZM102.02 31.7894L101.318 31.8628L101.371 32.3748L101.875 32.4803L102.02 31.7894ZM111.452 23.5814L112.142 23.4352L112.106 23.2656L111.996 23.1319L111.452 23.5814ZM110.612 34.9334L110.778 35.6196L111.1 35.5417L111.246 35.244L110.612 34.9334ZM100.388 35.9894L100.124 36.6441L100.244 36.6927L100.374 36.6952L100.388 35.9894ZM96.2598 32.2934L95.5541 32.3074L95.5583 32.5202L95.6794 32.6952L96.2598 32.2934ZM97.7238 21.8774L97.5493 21.1935L97.21 21.28L97.0736 21.6026L97.7238 21.8774ZM108.38 21.2534L108.778 20.6705L108.669 20.5963L108.541 20.5663L108.38 21.2534ZM106.028 31.4534L106.733 31.4715C106.78 29.6588 107.001 27.1629 106.68 24.6673L105.98 24.7574L105.28 24.8475C105.582 27.2 105.372 29.5041 105.322 31.4353L106.028 31.4534ZM105.98 24.7574L106.05 24.0551C104.838 23.9339 103.579 23.8448 102.153 24.3291L102.38 24.9974L102.607 25.6658C103.725 25.2861 104.721 25.341 105.91 25.4598L105.98 24.7574ZM102.38 24.9974L101.753 24.6732C101.659 24.8546 101.602 25.0854 101.562 25.2839C101.518 25.5023 101.48 25.7618 101.447 26.044C101.381 26.6097 101.33 27.3038 101.297 28.0184C101.23 29.4361 101.228 31.0037 101.318 31.8628L102.02 31.7894L102.722 31.7161C102.644 30.9671 102.641 29.4867 102.707 28.0844C102.739 27.389 102.788 26.7302 102.849 26.2084C102.88 25.9468 102.913 25.7289 102.946 25.5624C102.984 25.376 103.011 25.3142 103.007 25.3217L102.38 24.9974ZM102.02 31.7894L101.875 32.4803C102.504 32.612 103.412 32.5828 104.202 32.5038C104.997 32.4243 105.809 32.2799 106.264 32.1187L106.028 31.4534L105.792 30.7882C105.502 30.891 104.827 31.0226 104.062 31.0991C103.291 31.1761 102.567 31.1829 102.164 31.0986L102.02 31.7894ZM111.452 23.5814L110.761 23.7277C110.957 24.6535 111.046 26.8152 110.93 29.0863C110.872 30.2098 110.766 31.335 110.603 32.3193C110.439 33.3177 110.226 34.1174 109.978 34.6229L110.612 34.9334L111.246 35.244C111.586 34.5494 111.826 33.5851 111.996 32.5488C112.169 31.4983 112.28 30.3181 112.34 29.1586C112.457 26.8637 112.378 24.5493 112.142 23.4352L111.452 23.5814ZM110.612 34.9334L110.446 34.2473C106.255 35.2599 102.913 35.3311 100.401 35.2837L100.388 35.9894L100.374 36.6952C102.951 36.7438 106.425 36.671 110.778 35.6196L110.612 34.9334ZM100.388 35.9894L100.652 35.3348C99.3475 34.8089 97.8849 33.4008 96.8401 31.8917L96.2598 32.2934L95.6794 32.6952C96.7947 34.3061 98.4521 35.97 100.124 36.6441L100.388 35.9894ZM96.2598 32.2934L96.9655 32.2795C96.894 28.6553 97.1858 24.9626 98.3739 22.1523L97.7238 21.8774L97.0736 21.6026C95.7657 24.6963 95.4816 28.6356 95.5541 32.3074L96.2598 32.2934ZM97.7238 21.8774L97.8983 22.5614C99.0163 22.2762 101.045 21.9861 103.103 21.8375C105.181 21.6873 107.159 21.6919 108.218 21.9406L108.38 21.2534L108.541 20.5663C107.249 20.263 105.075 20.2796 103.001 20.4294C100.906 20.5808 98.7832 20.8787 97.5493 21.1935L97.7238 21.8774ZM108.38 21.2534L107.982 21.8363C108.477 22.1746 109.121 22.6116 109.698 23.0327C110.302 23.4735 110.746 23.836 110.908 24.031L111.452 23.5814L111.996 23.1319C111.701 22.7749 111.102 22.3094 110.53 21.8922C109.931 21.4553 109.267 21.0043 108.778 20.6705L108.38 21.2534ZM126.089 32.9414L126.794 32.9094L126.773 32.46L126.357 32.2887L126.089 32.9414ZM125.417 36.2054L125.407 36.9112L125.631 36.9142L125.815 36.788L125.417 36.2054ZM114.065 34.8854L113.526 35.3417L113.651 35.4889L113.833 35.5522L114.065 34.8854ZM114.761 22.2374L114.433 21.6123L114.278 21.6936L114.179 21.8378L114.761 22.2374ZM125.729 20.9174L126.429 20.8261L126.377 20.4302L126.011 20.2705L125.729 20.9174ZM125.729 24.0854L125.792 24.7884L126.327 24.7398L126.423 24.2117L125.729 24.0854ZM120.233 24.8774L119.973 24.2209L119.655 24.3464L119.557 24.6738L120.233 24.8774ZM119.897 32.1734L119.29 32.5349L119.378 32.6827L119.525 32.7733L119.897 32.1734ZM126.089 32.9414L125.383 32.9735C125.405 33.4406 125.356 34.1251 125.247 34.7265C125.193 35.0265 125.127 35.2819 125.059 35.4673C125.024 35.56 124.995 35.6197 124.975 35.6531C124.951 35.693 124.959 35.6632 125.018 35.6229L125.417 36.2054L125.815 36.788C125.988 36.6697 126.105 36.5124 126.182 36.3848C126.263 36.2506 126.329 36.1027 126.383 35.9573C126.49 35.6665 126.574 35.3234 126.636 34.9784C126.761 34.2897 126.82 33.4982 126.794 32.9094L126.089 32.9414ZM125.417 36.2054L125.426 35.4996C121.825 35.4513 117.553 35.3504 114.296 34.2187L114.065 34.8854L113.833 35.5522C117.344 36.7725 121.857 36.8636 125.407 36.9112L125.417 36.2054ZM114.065 34.8854L114.603 34.4292C114.51 34.3188 114.393 34.101 114.283 33.7383C114.176 33.3859 114.089 32.9441 114.027 32.4295C113.902 31.4009 113.881 30.1403 113.956 28.8451C114.031 27.5513 114.2 26.2445 114.447 25.125C114.698 23.9834 115.014 23.1146 115.342 22.6371L114.761 22.2374L114.179 21.8378C113.691 22.5483 113.329 23.6384 113.068 24.8211C112.803 26.0259 112.625 27.4085 112.547 28.7637C112.469 30.1175 112.488 31.4655 112.625 32.5991C112.694 33.1657 112.794 33.6934 112.932 34.1483C113.067 34.5928 113.254 35.0201 113.526 35.3417L114.065 34.8854ZM114.761 22.2374L115.088 22.8626C115.488 22.6532 116.253 22.4213 117.266 22.2051C118.258 21.9935 119.421 21.81 120.57 21.6755C121.719 21.5409 122.84 21.4569 123.747 21.4413C124.201 21.4335 124.591 21.443 124.898 21.4697C125.226 21.4981 125.393 21.5411 125.446 21.5644L125.729 20.9174L126.011 20.2705C125.734 20.1498 125.372 20.0938 125.02 20.0632C124.647 20.0309 124.205 20.0215 123.723 20.0298C122.757 20.0464 121.587 20.135 120.405 20.2734C119.223 20.4118 118.015 20.6018 116.972 20.8245C115.95 21.0425 115.018 21.3056 114.433 21.6123L114.761 22.2374ZM125.729 20.9174L125.029 21.0087C125.1 21.5594 125.253 22.7579 125.034 23.9592L125.729 24.0854L126.423 24.2117C126.685 22.773 126.501 21.3794 126.429 20.8261L125.729 20.9174ZM125.729 24.0854L125.665 23.3825C123.415 23.587 121.923 23.4513 119.973 24.2209L120.233 24.8774L120.492 25.534C122.19 24.8636 123.29 25.0159 125.792 24.7884L125.729 24.0854ZM120.233 24.8774L119.557 24.6738C119.274 25.6113 118.998 27.1761 118.884 28.6605C118.827 29.4059 118.809 30.1524 118.857 30.8052C118.903 31.4297 119.015 32.0734 119.29 32.5349L119.897 32.1734L120.503 31.812C120.406 31.6495 120.308 31.2882 120.265 30.7014C120.224 30.143 120.237 29.472 120.291 28.7684C120.4 27.3548 120.663 25.8956 120.908 25.0811L120.233 24.8774ZM119.897 32.1734L119.525 32.7733C119.961 33.0436 120.577 33.1774 121.157 33.259C121.765 33.3446 122.453 33.3869 123.106 33.4156C123.777 33.4452 124.383 33.4595 124.906 33.489C125.162 33.5035 125.377 33.5207 125.547 33.5426C125.632 33.5534 125.698 33.5647 125.749 33.5756C125.802 33.5871 125.822 33.5949 125.82 33.5941L126.089 32.9414L126.357 32.2887C126.164 32.2093 125.932 32.1687 125.728 32.1424C125.508 32.1142 125.254 32.0947 124.985 32.0796C124.459 32.0499 123.792 32.0327 123.168 32.0053C122.524 31.9769 121.892 31.9368 121.354 31.8611C120.788 31.7815 120.433 31.6752 120.269 31.5735L119.897 32.1734ZM141.997 20.3894L142.7 20.3263L142.653 19.8071L142.143 19.6989L141.997 20.3894ZM141.901 36.2294L142.026 36.9242L142.588 36.8233L142.606 36.2524L141.901 36.2294ZM137.053 36.3014L136.349 36.35L136.39 36.9566L136.997 37.005L137.053 36.3014ZM136.957 31.5014L137.649 31.3609L137.542 30.837L137.009 30.7975L136.957 31.5014ZM133.189 31.8374L132.567 31.5028L132.496 31.6358L132.485 31.7864L133.189 31.8374ZM133.045 36.3254L133.179 37.0184L133.776 36.9028L133.75 36.2948L133.045 36.3254ZM128.005 36.5174L127.309 36.6356L127.401 37.1802L127.952 37.2213L128.005 36.5174ZM127.909 20.8454L127.719 20.1657L127.222 20.3049L127.203 20.8207L127.909 20.8454ZM133.285 20.7254L133.98 20.8468L134.037 20.5189L133.821 20.2661L133.285 20.7254ZM133.093 25.8614H132.387V26.4095L132.918 26.5453L133.093 25.8614ZM137.101 25.5974L137.352 26.257L137.702 26.1239L137.788 25.7601L137.101 25.5974ZM137.125 20.7254L136.809 20.0941L136.449 20.274L136.421 20.6751L137.125 20.7254ZM141.997 20.3894L141.294 20.4525C141.625 24.1409 141.268 33.9672 141.195 36.2064L141.901 36.2294L142.606 36.2524C142.677 34.0757 143.041 24.1259 142.7 20.3263L141.997 20.3894ZM141.901 36.2294L141.776 35.5347C141.382 35.6055 140.388 35.6375 139.349 35.6406C138.328 35.6436 137.377 35.6192 137.109 35.5978L137.053 36.3014L136.997 37.005C137.329 37.0316 138.333 37.0553 139.353 37.0523C140.354 37.0493 141.484 37.0214 142.026 36.9242L141.901 36.2294ZM137.053 36.3014L137.757 36.2529C137.712 35.6042 137.763 34.851 137.791 33.9783C137.818 33.1403 137.822 32.2164 137.649 31.3609L136.957 31.5014L136.265 31.6419C136.403 32.3225 136.407 33.1026 136.38 33.9326C136.355 34.7279 136.297 35.6067 136.349 36.35L137.053 36.3014ZM136.957 31.5014L137.009 30.7975C136.694 30.7742 135.802 30.6991 134.945 30.7117C134.52 30.7179 134.07 30.7458 133.688 30.8231C133.498 30.8617 133.296 30.918 133.113 31.0066C132.938 31.0914 132.709 31.2403 132.567 31.5028L133.189 31.8374L133.81 32.1721C133.753 32.2786 133.684 32.2985 133.728 32.2771C133.765 32.2596 133.84 32.2327 133.968 32.2067C134.223 32.1551 134.572 32.129 134.966 32.1232C135.747 32.1118 136.572 32.1807 136.905 32.2054L136.957 31.5014ZM133.189 31.8374L132.485 31.7864C132.365 33.4371 132.266 34.6529 132.34 36.3561L133.045 36.3254L133.75 36.2948C133.68 34.686 133.772 33.5498 133.893 31.8885L133.189 31.8374ZM133.045 36.3254L132.911 35.6324C131.507 35.9041 129.632 35.931 128.057 35.8135L128.005 36.5174L127.952 37.2213C129.594 37.3439 131.607 37.3228 133.179 37.0184L133.045 36.3254ZM128.005 36.5174L128.701 36.3993C128.498 35.2025 128.447 32.0422 128.465 28.7573C128.483 25.5069 128.566 22.2318 128.614 20.8702L127.909 20.8454L127.203 20.8207C127.155 22.195 127.071 25.484 127.053 28.7495C127.035 31.9807 127.08 35.2884 127.309 36.6356L128.005 36.5174ZM127.909 20.8454L128.099 21.5251C128.606 21.3832 129.799 21.269 130.957 21.2391C131.523 21.2244 132.049 21.2307 132.441 21.2592C132.639 21.2736 132.785 21.2924 132.877 21.3115C132.924 21.3213 132.939 21.3274 132.932 21.3248C132.928 21.3232 132.909 21.3155 132.881 21.2986C132.855 21.2829 132.803 21.2477 132.749 21.1848L133.285 20.7254L133.821 20.2661C133.689 20.1119 133.525 20.041 133.448 20.0106C133.352 19.9731 133.253 19.9476 133.164 19.9292C132.984 19.8919 132.768 19.8675 132.543 19.8512C132.088 19.8181 131.512 19.8125 130.921 19.8278C129.762 19.8578 128.411 19.9717 127.719 20.1657L127.909 20.8454ZM133.285 20.7254L132.59 20.604C132.312 22.1949 132.387 24.4013 132.387 25.8614H133.093H133.799C133.799 24.2976 133.73 22.28 133.98 20.8468L133.285 20.7254ZM133.093 25.8614L132.918 26.5453C133.565 26.7108 134.552 26.6781 135.36 26.6033C135.782 26.5642 136.188 26.5102 136.526 26.4526C136.844 26.3984 137.155 26.3323 137.352 26.257L137.101 25.5974L136.85 24.9378C136.795 24.9586 136.608 25.0065 136.288 25.061C135.989 25.1122 135.618 25.1616 135.23 25.1976C134.417 25.2728 133.653 25.276 133.268 25.1776L133.093 25.8614ZM137.101 25.5974L137.788 25.7601C137.861 25.4502 137.883 25.0479 137.888 24.6492C137.893 24.2363 137.88 23.767 137.863 23.2986C137.829 22.3348 137.784 21.3991 137.829 20.7757L137.125 20.7254L136.421 20.6751C136.369 21.3958 136.42 22.44 136.452 23.3483C136.469 23.8159 136.481 24.2556 136.476 24.6317C136.472 25.0219 136.449 25.2887 136.414 25.4348L137.101 25.5974ZM137.125 20.7254L137.441 21.3568C137.505 21.3247 137.741 21.2589 138.179 21.1961C138.582 21.1383 139.073 21.0933 139.575 21.0641C140.076 21.0349 140.576 21.0219 140.995 21.0263C141.435 21.0308 141.729 21.0542 141.85 21.0799L141.997 20.3894L142.143 19.6989C141.869 19.6407 141.446 19.6191 141.01 19.6146C140.554 19.6099 140.021 19.624 139.493 19.6548C138.965 19.6855 138.432 19.7336 137.978 19.7987C137.559 19.8589 137.105 19.9462 136.809 20.0941L137.125 20.7254ZM158.955 21.1094L159.66 21.1256L159.675 20.462L159.014 20.4061L158.955 21.1094ZM158.859 35.4614L159.209 36.0743L159.579 35.8629L159.564 35.4371L158.859 35.4614ZM153.747 36.0614L153.041 36.0908L153.069 36.7458L153.724 36.7669L153.747 36.0614ZM153.699 34.9094L154.404 34.8801L154.367 34.0064L153.521 34.2263L153.699 34.9094ZM146.595 35.7974L146.105 36.3062L146.337 36.5289L146.657 36.5005L146.595 35.7974ZM144.075 32.6294L143.369 32.6369L143.37 32.7599L143.413 32.8752L144.075 32.6294ZM144.819 21.6374L144.588 20.9704L144.185 21.1099L144.121 21.5314L144.819 21.6374ZM150.267 20.9174L150.97 20.9739L151.032 20.1989L150.255 20.2117L150.267 20.9174ZM149.835 30.9734H149.129V31.602L149.753 31.6746L149.835 30.9734ZM153.435 30.3974L153.858 30.9621L154.143 30.7482L154.14 30.3916L153.435 30.3974ZM153.411 21.3974L153.265 20.7067L152.715 20.8225L152.705 21.3846L153.411 21.3974ZM158.955 21.1094L158.249 21.0933C158.177 24.2326 158.056 32.6777 158.153 35.4858L158.859 35.4614L159.564 35.4371C159.469 32.6771 159.588 24.2743 159.66 21.1256L158.955 21.1094ZM158.859 35.4614L158.508 34.8486C158.452 34.881 158.246 34.9529 157.849 35.0315C157.481 35.1041 157.025 35.1689 156.533 35.2216C155.547 35.3273 154.471 35.3786 153.769 35.3559L153.747 36.0614L153.724 36.7669C154.51 36.7923 155.654 36.7356 156.684 36.6253C157.2 36.5699 157.701 36.4998 158.122 36.4164C158.514 36.339 158.929 36.2339 159.209 36.0743L158.859 35.4614ZM153.747 36.0614L154.452 36.0321L154.404 34.8801L153.699 34.9094L152.993 34.9388L153.041 36.0908L153.747 36.0614ZM153.699 34.9094L153.521 34.2263C151.746 34.6872 149.286 34.8507 146.532 35.0943L146.595 35.7974L146.657 36.5005C149.327 36.2642 151.955 36.0917 153.876 35.5926L153.699 34.9094ZM146.595 35.7974L147.084 35.2886C146.792 35.0078 146.257 34.4446 145.758 33.85C145.51 33.5535 145.277 33.2572 145.091 32.9904C144.897 32.7127 144.782 32.5069 144.736 32.3837L144.075 32.6294L143.413 32.8752C143.523 33.172 143.723 33.4971 143.933 33.7985C144.151 34.1107 144.412 34.4414 144.677 34.7569C145.204 35.3863 145.773 35.9871 146.105 36.3062L146.595 35.7974ZM144.075 32.6294L144.78 32.622C144.757 30.3786 145.234 23.6005 145.516 21.7434L144.819 21.6374L144.121 21.5314C143.827 23.4663 143.344 30.3203 143.369 32.6369L144.075 32.6294ZM144.819 21.6374L145.049 22.3045C145.597 22.115 146.528 21.9476 147.546 21.8252C148.549 21.7047 149.574 21.6347 150.278 21.6232L150.267 20.9174L150.255 20.2117C149.495 20.2241 148.42 20.2982 147.377 20.4236C146.349 20.5473 145.288 20.7279 144.588 20.9704L144.819 21.6374ZM150.267 20.9174L149.563 20.861C149.25 24.7651 149.129 27.6161 149.129 30.9734H149.835H150.54C150.54 27.6588 150.659 24.8458 150.97 20.9739L150.267 20.9174ZM149.835 30.9734L149.753 31.6746C150.33 31.7417 151.096 31.7403 151.824 31.6465C152.523 31.5564 153.32 31.3655 153.858 30.9621L153.435 30.3974L153.011 29.8328C152.781 30.0054 152.295 30.1624 151.643 30.2464C151.021 30.3265 150.371 30.3252 149.916 30.2723L149.835 30.9734ZM153.435 30.3974L154.14 30.3916C154.116 27.4796 154.068 24.038 154.116 21.4103L153.411 21.3974L152.705 21.3846C152.657 24.0368 152.705 27.5073 152.729 30.4033L153.435 30.3974ZM153.411 21.3974L153.556 22.0882C155.298 21.7215 157.242 21.6731 158.895 21.8128L158.955 21.1094L159.014 20.4061C157.259 20.2578 155.171 20.3054 153.265 20.7067L153.411 21.3974ZM170.333 27.8054L170.824 28.3124L171.004 28.1385L171.034 27.8904L170.333 27.8054ZM169.997 24.7094L170.689 24.571L170.611 24.1817L170.238 24.0461L169.997 24.7094ZM166.733 25.1894L166.352 24.5949L166.06 24.7822L166.03 25.1283L166.733 25.1894ZM166.757 28.6934L166.067 28.8443L166.192 29.4136L166.775 29.3991L166.757 28.6934ZM176.165 35.3414L176.503 35.9611L177.081 35.6458L176.807 35.0473L176.165 35.3414ZM170.885 36.3494L170.365 36.8264L170.583 37.0648L170.906 37.055L170.885 36.3494ZM168.125 32.6774L168.67 32.2294L168.381 31.8767L167.94 31.9962L168.125 32.6774ZM166.709 33.0614L166.524 32.3802L166.035 32.5128L166.004 33.0183L166.709 33.0614ZM166.661 36.0134L166.836 36.6972L167.328 36.5711L167.365 36.0649L166.661 36.0134ZM161.525 36.3014L160.822 36.3606L160.871 36.9508L161.461 37.0044L161.525 36.3014ZM161.573 20.6534L161.382 19.9739L161.008 20.079L160.897 20.4506L161.573 20.6534ZM166.589 20.2694H167.295V19.6349L166.664 19.5676L166.589 20.2694ZM166.589 21.4214H165.883V22.3225L166.758 22.1068L166.589 21.4214ZM173.405 20.7494L173.847 20.1992L173.666 20.054L173.435 20.0442L173.405 20.7494ZM176.069 28.1414L176.6 28.6062L176.749 28.4358L176.771 28.2104L176.069 28.1414ZM173.549 30.6374L173.082 30.1078L172.622 30.5131L172.959 31.0254L173.549 30.6374ZM170.333 27.8054L171.034 27.8904C171.095 27.3872 171.006 26.5804 170.918 25.9529C170.826 25.292 170.715 24.7022 170.689 24.571L169.997 24.7094L169.305 24.8479C169.327 24.9567 169.432 25.5189 169.52 26.148C169.612 26.8104 169.667 27.4316 169.632 27.7205L170.333 27.8054ZM169.997 24.7094L170.238 24.0461C169.97 23.9486 169.618 23.9377 169.334 23.9437C169.015 23.9505 168.651 23.9836 168.293 24.0346C167.934 24.0857 167.566 24.1567 167.24 24.2434C166.934 24.325 166.599 24.4371 166.352 24.5949L166.733 25.1894L167.113 25.784C167.167 25.7497 167.324 25.6819 167.603 25.6075C167.864 25.5382 168.175 25.4772 168.491 25.4323C168.808 25.3873 169.114 25.3604 169.364 25.3551C169.647 25.3491 169.76 25.3743 169.756 25.3728L169.997 24.7094ZM166.733 25.1894L166.03 25.1283C165.98 25.6973 165.943 26.4008 165.94 27.0641C165.937 27.7105 165.965 28.3781 166.067 28.8443L166.757 28.6934L167.447 28.5426C167.38 28.2407 167.349 27.7083 167.352 27.0707C167.355 26.4501 167.39 25.7855 167.436 25.2506L166.733 25.1894ZM166.757 28.6934L166.775 29.3991C167.268 29.3867 168.013 29.3496 168.746 29.2134C169.444 29.0836 170.28 28.8392 170.824 28.3124L170.333 27.8054L169.842 27.2985C169.618 27.5157 169.145 27.7033 168.488 27.8255C167.865 27.9413 167.206 27.9761 166.739 27.9878L166.757 28.6934ZM176.165 35.3414L175.827 34.7218C175.707 34.7874 175.445 34.8841 175.043 34.9933C174.658 35.0981 174.19 35.2021 173.692 35.2957C172.689 35.4839 171.606 35.6214 170.864 35.6439L170.885 36.3494L170.906 37.055C171.748 37.0295 172.909 36.8789 173.952 36.6832C174.477 36.5848 174.982 36.4728 175.414 36.3556C175.829 36.2428 176.227 36.1114 176.503 35.9611L176.165 35.3414ZM170.885 36.3494L171.405 35.8725C171.178 35.6247 170.798 35.0917 170.295 34.3902C169.81 33.7144 169.239 32.922 168.67 32.2294L168.125 32.6774L167.58 33.1255C168.115 33.7769 168.66 34.5325 169.147 35.2127C169.616 35.8672 170.064 36.4981 170.365 36.8264L170.885 36.3494ZM168.125 32.6774L167.94 31.9962L166.524 32.3802L166.709 33.0614L166.894 33.7427L168.31 33.3587L168.125 32.6774ZM166.709 33.0614L166.004 33.0183C165.967 33.6351 165.973 34.1505 165.979 34.6185C165.985 35.09 165.99 35.5047 165.957 35.9619L166.661 36.0134L167.365 36.0649C167.403 35.5382 167.397 35.0649 167.391 34.6004C167.385 34.1324 167.379 33.6638 167.413 33.1046L166.709 33.0614ZM166.661 36.0134L166.486 35.3297C165.634 35.548 163.628 35.7838 161.589 35.5985L161.525 36.3014L161.461 37.0044C163.646 37.2031 165.816 36.9589 166.836 36.6972L166.661 36.0134ZM161.525 36.3014L162.228 36.2423C162.123 34.9874 162.009 31.5187 161.985 28.1394C161.973 26.4535 161.983 24.8014 162.028 23.4697C162.05 22.8033 162.081 22.2238 162.121 21.7636C162.162 21.285 162.209 20.989 162.249 20.8563L161.573 20.6534L160.897 20.4506C160.811 20.7378 160.755 21.1656 160.714 21.6421C160.671 22.1369 160.64 22.7437 160.617 23.4225C160.572 24.781 160.561 26.4543 160.573 28.1494C160.597 31.5321 160.711 35.0475 160.822 36.3606L161.525 36.3014ZM161.573 20.6534L161.764 21.3329C162.092 21.2408 162.85 21.1019 163.764 21.0108C164.674 20.9201 165.682 20.8826 166.514 20.9713L166.589 20.2694L166.664 19.5676C165.696 19.4643 164.58 19.5108 163.624 19.6061C162.672 19.7009 161.822 19.8501 161.382 19.9739L161.573 20.6534ZM166.589 20.2694H165.883V21.4214H166.589H167.295V20.2694H166.589ZM166.589 21.4214L166.758 22.1068C168.442 21.6915 171.735 21.3854 173.375 21.4547L173.405 20.7494L173.435 20.0442C171.667 19.9695 168.24 20.2873 166.42 20.7361L166.589 21.4214ZM173.405 20.7494L172.963 21.2997C173.49 21.7234 174.166 22.7607 174.681 24.0964C175.189 25.4132 175.484 26.8758 175.366 28.0724L176.069 28.1414L176.771 28.2104C176.918 26.719 176.553 25.0257 175.999 23.5885C175.452 22.1702 174.664 20.8555 173.847 20.1992L173.405 20.7494ZM176.069 28.1414L175.538 27.6766C175.055 28.2285 174.069 29.2389 173.082 30.1078L173.549 30.6374L174.016 31.1671C175.045 30.26 176.075 29.2064 176.6 28.6062L176.069 28.1414ZM173.549 30.6374L172.959 31.0254C173.539 31.906 175.273 35.0905 175.523 35.6355L176.165 35.3414L176.807 35.0473C176.528 34.4404 174.759 31.1928 174.139 30.2495L173.549 30.6374ZM187.329 26.7014L187.53 27.378L187.999 27.2385L188.033 26.75L187.329 26.7014ZM187.017 24.1814L187.632 23.8366L187.417 23.4522L186.977 23.4767L187.017 24.1814ZM184.329 24.6374L184.073 23.9793L183.748 24.1055L183.651 24.4406L184.329 24.6374ZM183.753 27.1334L183.052 27.048L182.959 27.8123L183.728 27.8389L183.753 27.1334ZM192.969 29.7734L193.081 30.4702L193.66 30.3767L193.674 29.7911L192.969 29.7734ZM183.417 30.4934L183.395 29.7879L182.635 29.8115L182.715 30.5673L183.417 30.4934ZM183.753 31.5974L183.143 31.9531L183.231 32.1048L183.381 32.1973L183.753 31.5974ZM191.169 32.7014L191.874 32.6694L191.853 32.22L191.437 32.0487L191.169 32.7014ZM190.521 36.3014L190.511 37.0072L190.744 37.0104L190.934 36.8737L190.521 36.3014ZM178.641 34.6694L178.102 35.1257L178.227 35.2729L178.409 35.3362L178.641 34.6694ZM179.337 21.9974L179.009 21.3723L178.854 21.4536L178.755 21.5978L179.337 21.9974ZM191.313 20.6774L191.917 20.3132L191.801 20.1205L191.595 20.0305L191.313 20.6774ZM187.329 26.7014L188.033 26.75C188.059 26.3716 188.065 25.8537 188.02 25.3423C187.976 24.8558 187.877 24.2735 187.632 23.8366L187.017 24.1814L186.401 24.5263C186.492 24.6894 186.573 25.0191 186.613 25.4685C186.652 25.8932 186.646 26.3352 186.624 26.6529L187.329 26.7014ZM187.017 24.1814L186.977 23.4767C186.151 23.5226 185.376 23.4742 184.073 23.9793L184.329 24.6374L184.584 25.2955C185.633 24.8887 186.154 24.9363 187.056 24.8862L187.017 24.1814ZM184.329 24.6374L183.651 24.4406C183.438 25.1717 183.18 25.9967 183.052 27.048L183.753 27.1334L184.453 27.2189C184.565 26.3021 184.787 25.5912 185.006 24.8342L184.329 24.6374ZM183.753 27.1334L183.728 27.8389C185.201 27.8897 186.573 27.6624 187.53 27.378L187.329 26.7014L187.127 26.0248C186.308 26.2685 185.088 26.4732 183.777 26.428L183.753 27.1334ZM192.969 29.7734L192.856 29.0766C191.27 29.3332 186.483 29.6922 183.395 29.7879L183.417 30.4934L183.438 31.199C186.542 31.1027 191.403 30.7417 193.081 30.4702L192.969 29.7734ZM183.417 30.4934L182.715 30.5673C182.771 31.1084 182.918 31.5671 183.143 31.9531L183.753 31.5974L184.362 31.2418C184.251 31.0518 184.158 30.7905 184.118 30.4195L183.417 30.4934ZM183.753 31.5974L183.381 32.1973C183.616 32.3434 183.908 32.4465 184.195 32.5254C184.492 32.6069 184.832 32.6749 185.189 32.7332C185.904 32.8498 186.739 32.9348 187.543 33.0056C188.363 33.0778 189.126 33.1332 189.767 33.1945C190.083 33.2246 190.351 33.2546 190.56 33.2861C190.664 33.3018 190.748 33.3168 190.811 33.3309C190.879 33.346 190.903 33.3555 190.9 33.3541L191.169 32.7014L191.437 32.0487C191.247 31.9705 190.996 31.924 190.77 31.89C190.523 31.8529 190.225 31.8201 189.901 31.7892C189.263 31.7281 188.448 31.6681 187.666 31.5993C186.868 31.5291 186.077 31.4476 185.416 31.3399C185.086 31.2861 184.8 31.2275 184.569 31.164C184.328 31.0979 184.189 31.0375 184.124 30.9975L183.753 31.5974ZM191.169 32.7014L190.463 32.7335C190.485 33.2026 190.436 33.9758 190.327 34.6714C190.273 35.0178 190.208 35.321 190.137 35.5442C190.102 35.6563 190.071 35.7309 190.048 35.7741C190.019 35.8309 190.029 35.7854 190.107 35.7292L190.521 36.3014L190.934 36.8737C191.12 36.7395 191.233 36.556 191.3 36.4268C191.375 36.2842 191.435 36.125 191.484 35.9675C191.584 35.6513 191.662 35.2721 191.722 34.8895C191.841 34.1271 191.9 33.2563 191.874 32.6694L191.169 32.7014ZM190.521 36.3014L190.53 35.5956C186.995 35.5479 182.145 35.1399 178.872 34.0027L178.641 34.6694L178.409 35.3362C181.904 36.551 186.942 36.959 190.511 37.0072L190.521 36.3014ZM178.641 34.6694L179.179 34.2132C179.086 34.103 178.969 33.8851 178.859 33.5216C178.752 33.1685 178.665 32.7257 178.603 32.2099C178.478 31.179 178.457 29.9153 178.532 28.617C178.607 27.3202 178.776 26.0102 179.023 24.8885C179.274 23.7445 179.59 22.8744 179.918 22.3971L179.337 21.9974L178.755 21.5978C178.267 22.3085 177.905 23.4004 177.644 24.5852C177.379 25.7921 177.201 27.1777 177.123 28.5358C177.045 29.8926 177.064 31.2434 177.201 32.3792C177.27 32.9468 177.37 33.4754 177.508 33.9309C177.642 34.376 177.829 34.8038 178.102 35.1257L178.641 34.6694ZM179.337 21.9974L179.664 22.6226C180.055 22.4179 180.873 22.1853 181.988 21.9676C183.075 21.7553 184.365 21.5713 185.642 21.4364C186.919 21.3014 188.168 21.217 189.172 21.2013C189.675 21.1935 190.106 21.203 190.443 21.2301C190.806 21.2591 190.982 21.3035 191.03 21.3244L191.313 20.6774L191.595 20.0305C191.313 19.9074 190.929 19.8527 190.556 19.8229C190.158 19.7909 189.678 19.7815 189.15 19.7898C188.093 19.8063 186.8 19.8944 185.493 20.0325C184.187 20.1706 182.854 20.36 181.717 20.582C180.608 20.7986 179.602 21.061 179.009 21.3723L179.337 21.9974ZM191.313 20.6774L190.708 21.0417C191.237 21.9194 191.652 23.3646 191.921 25.0066C192.187 26.629 192.298 28.3609 192.263 29.7558L192.969 29.7734L193.674 29.7911C193.711 28.306 193.594 26.4859 193.314 24.7782C193.037 23.0902 192.588 21.4274 191.917 20.3132L191.313 20.6774Z" fill="black" mask="url(#path-6-outside-1_333_1167)"/>
</g>
<defs>
<filter id="filter0_d_333_1167" x="59.0027" y="16.1953" width="134.678" height="23.144" filterUnits="userSpaceOnUse" color-interpolation-filters="sRGB">
<feFlood flood-opacity="0" result="BackgroundImageFix"/>
<feColorMatrix in="SourceAlpha" type="matrix" values="0 0 0 0 0 0 0 0 0 0 0 0 0 0 0 0 0 0 127 0" result="hardAlpha"/>
<feOffset dy="1.88228"/>
<feComposite in2="hardAlpha" operator="out"/>
<feColorMatrix type="matrix" values="0 0 0 0 0 0 0 0 0 0 0 0 0 0 0 0 0 0 1 0"/>
<feBlend mode="normal" in2="BackgroundImageFix" result="effect1_dropShadow_333_1167"/>
<feBlend mode="normal" in="SourceGraphic" in2="effect1_dropShadow_333_1167" result="shape"/>
</filter>
<linearGradient id="paint0_linear_333_1167" x1="124.499" y1="1.14453" x2="124.499" y2="55.2066" gradientUnits="userSpaceOnUse">
<stop offset="0.00703235" stop-color="#B4E481"/>
<stop offset="0.199385" stop-color="#ABDF85"/>
<stop offset="0.653846" stop-color="#9CD85F"/>
<stop offset="0.9375" stop-color="#7ED02E"/>
</linearGradient>
<linearGradient id="paint1_linear_333_1167" x1="124.6" y1="0" x2="124.652" y2="3.67578" gradientUnits="userSpaceOnUse">
<stop stop-color="#B1E081"/>
<stop offset="1" stop-color="#85CD2A"/>
</linearGradient>
<linearGradient id="paint2_linear_333_1167" x1="124.501" y1="51.3872" x2="124.501" y2="54.9922" gradientUnits="userSpaceOnUse">
<stop stop-color="#95D644"/>
<stop offset="1" stop-color="#81CC27"/>
</linearGradient>
</defs>
</svg>
