<svg width="24" height="25" viewBox="0 0 24 25" fill="none" xmlns="http://www.w3.org/2000/svg">
<g clip-path="url(#clip0_835_17)">
<path d="M23.1035 13.598C23.097 16.3764 22.0479 19.0511 20.1638 21.093C18.2797 23.135 15.6978 24.3954 12.9289 24.625C12.9289 24.625 5.6276 24.8031 3.20251 24.603C2.76406 24.5515 2.34681 24.3858 1.99251 24.1224C1.63821 23.8591 1.35927 23.5073 1.18359 23.1023C1.52059 23.2648 1.88368 23.3664 2.25608 23.4024C3.05644 23.4705 4.40105 23.5045 6.2839 23.5045C9.04915 23.5045 12.0545 23.4284 12.0865 23.4284H12.1386C14.8913 23.2009 17.4819 22.0332 19.4756 20.1215C21.4693 18.2098 22.7446 15.6705 23.0875 12.9297C23.0975 13.1398 23.1035 13.3659 23.1035 13.598Z" fill="black"/>
<path d="M8.11133 0.813477C9.17152 0.828931 10.1567 0.850328 10.877 0.868164C11.2369 0.877078 11.5308 0.88491 11.7344 0.890625C11.8361 0.893483 11.916 0.895879 11.9697 0.897461C11.9901 0.89806 12.0067 0.898054 12.0195 0.898438C14.5817 1.12612 16.9656 2.30615 18.7012 4.20508C20.4398 6.10735 21.401 8.59283 21.3945 11.1699V11.1709C21.3893 13.7491 20.417 16.2318 18.6689 18.127C16.9242 20.0185 14.5337 21.1861 11.9697 21.4023C11.9569 21.4027 11.9403 21.4038 11.9199 21.4043C11.8662 21.4056 11.7863 21.4079 11.6846 21.4102C11.481 21.4148 11.187 21.4208 10.8271 21.4277C10.1068 21.4417 9.12164 21.4578 8.06152 21.4678C5.92481 21.4879 3.53779 21.4808 2.37207 21.3809H2.37305C1.55569 21.3064 0.833277 20.5078 0.801758 19.5078L0.841797 2.73242C0.877835 1.73512 1.6046 0.940478 2.41797 0.874023H2.41895C3.58393 0.777824 5.97269 0.782303 8.11133 0.813477Z" stroke="black" stroke-width="1.60268"/>
</g>
<defs>
<clipPath id="clip0_835_17">
<rect width="23.1025" height="24.7032" fill="white"/>
</clipPath>
</defs>
</svg>
