<svg width="15" height="33" viewBox="0 0 15 33" fill="none" xmlns="http://www.w3.org/2000/svg">
<g filter="url(#filter0_d_333_1157)">
<path d="M5.68332 31.8375C4.83019 32.2096 4.54581 31.8596 4.47472 31.6381L4.45984 20.2773L13.8206 25.7502C11.2919 29.8011 6.49758 31.4823 5.68332 31.8375Z" fill="white"/>
</g>
<g filter="url(#filter1_d_333_1157)">
<path d="M14.8583 21.3688C14.8583 22.8549 14.3064 25.1746 13.8182 25.7506L0.411702 17.9129C-0.33393 17.5939 0.101022 17.204 0.411702 17.049C4.65026 14.5457 13.2872 9.45937 13.9263 9.14036C14.5654 8.82136 14.8139 9.36189 14.8583 9.67203V21.3688Z" fill="white"/>
</g>
<g filter="url(#filter2_d_333_1157)">
<path d="M4.45984 10.56L4.45984 0.524712C4.45984 -0.166463 4.99243 -0.0291139 5.25873 0.125957C7.87731 1.63236 13.2743 4.73822 13.9134 5.11039C14.5525 5.48256 14.1797 5.84144 13.9134 5.97436C11.4057 7.50291 6.20408 10.6398 5.45845 10.9588C4.71282 11.2778 4.48203 10.8259 4.45984 10.56Z" fill="white"/>
</g>
<defs>
<filter id="filter0_d_333_1157" x="4.45984" y="20.2773" width="9.36072" height="12.7227" filterUnits="userSpaceOnUse" color-interpolation-filters="sRGB">
<feFlood flood-opacity="0" result="BackgroundImageFix"/>
<feColorMatrix in="SourceAlpha" type="matrix" values="0 0 0 0 0 0 0 0 0 0 0 0 0 0 0 0 0 0 127 0" result="hardAlpha"/>
<feOffset dy="1"/>
<feComposite in2="hardAlpha" operator="out"/>
<feColorMatrix type="matrix" values="0 0 0 0 0 0 0 0 0 0 0 0 0 0 0 0 0 0 1 0"/>
<feBlend mode="normal" in2="BackgroundImageFix" result="effect1_dropShadow_333_1157"/>
<feBlend mode="normal" in="SourceGraphic" in2="effect1_dropShadow_333_1157" result="shape"/>
</filter>
<filter id="filter1_d_333_1157" x="0" y="9.04297" width="14.8583" height="17.707" filterUnits="userSpaceOnUse" color-interpolation-filters="sRGB">
<feFlood flood-opacity="0" result="BackgroundImageFix"/>
<feColorMatrix in="SourceAlpha" type="matrix" values="0 0 0 0 0 0 0 0 0 0 0 0 0 0 0 0 0 0 127 0" result="hardAlpha"/>
<feOffset dy="1"/>
<feComposite in2="hardAlpha" operator="out"/>
<feColorMatrix type="matrix" values="0 0 0 0 0 0 0 0 0 0 0 0 0 0 0 0 0 0 1 0"/>
<feBlend mode="normal" in2="BackgroundImageFix" result="effect1_dropShadow_333_1157"/>
<feBlend mode="normal" in="SourceGraphic" in2="effect1_dropShadow_333_1157" result="shape"/>
</filter>
<filter id="filter2_d_333_1157" x="4.45984" y="0" width="9.8064" height="12.0703" filterUnits="userSpaceOnUse" color-interpolation-filters="sRGB">
<feFlood flood-opacity="0" result="BackgroundImageFix"/>
<feColorMatrix in="SourceAlpha" type="matrix" values="0 0 0 0 0 0 0 0 0 0 0 0 0 0 0 0 0 0 127 0" result="hardAlpha"/>
<feOffset dy="1"/>
<feComposite in2="hardAlpha" operator="out"/>
<feColorMatrix type="matrix" values="0 0 0 0 0 0 0 0 0 0 0 0 0 0 0 0 0 0 1 0"/>
<feBlend mode="normal" in2="BackgroundImageFix" result="effect1_dropShadow_333_1157"/>
<feBlend mode="normal" in="SourceGraphic" in2="effect1_dropShadow_333_1157" result="shape"/>
</filter>
</defs>
</svg>
