<svg width="103" height="103" viewBox="0 0 103 103" fill="none" xmlns="http://www.w3.org/2000/svg">
<g clip-path="url(#clip0_798_1015)">
<path d="M46.668 56.0938L46.981 45.7768L56.4653 45.7917L56.3201 56.3866L46.668 56.0938Z" fill="#88779D"/>
<path d="M62.9839 69.2349L62.711 90.0674C62.7124 90.365 62.3426 90.8131 62.1575 91L54.8694 83.7809L55.0103 74.2946C57.0453 71.991 60.3688 66.8666 61.1134 67.0119C61.8581 67.1571 62.9804 68.491 62.9839 69.2349Z" fill="#766F8E"/>
<path d="M61.6753 67.936L55.0098 74.2915L46.0824 74.334C44.7748 73.1622 41.7487 70.4115 40.1042 68.7826C38.4223 67.1167 39.3683 66.7455 39.9085 66.7376C46.1698 66.6458 59.0274 66.4979 60.3672 66.6403C61.707 66.7827 61.8598 67.6252 61.6753 67.936Z" fill="#605576"/>
<path d="M39.1714 67.4855L46.0857 74.3344L45.5888 83.9204L38.5371 90.5517L39.1714 67.4855Z" fill="#4B3D59"/>
<path d="M45.5723 83.8256L54.6849 83.5963C56.5535 85.4475 60.8121 89.2962 62.1576 90.6289C63.8395 92.2948 43.7514 92.018 41.5195 92.0286C39.734 92.0371 38.7869 91.0496 38.5366 90.5548L45.5723 83.8256Z" fill="#6C5780"/>
<path d="M41.1733 20L45.1733 69L57.1733 70L62.1733 20L53.8394 4.99884C53.0953 3.65954 51.1834 3.61991 50.3845 4.92722L41.1733 20Z" fill="url(#paint0_linear_798_1015)" stroke="black" stroke-width="2"/>
</g>
<defs>
<linearGradient id="paint0_linear_798_1015" x1="51.6733" y1="2" x2="51.6733" y2="70" gradientUnits="userSpaceOnUse">
<stop stop-color="#CAA300"/>
<stop offset="1" stop-color="#CBA300"/>
</linearGradient>
<clipPath id="clip0_798_1015">
<rect width="71.2458" height="73.91" fill="white" transform="translate(50.6174 102.648) rotate(-135.273)"/>
</clipPath>
</defs>
</svg>
