<svg width="137" height="147" viewBox="0 0 137 147" fill="none" xmlns="http://www.w3.org/2000/svg">
<path d="M40.8523 3.91571C44.3345 3.0025 50.6763 1.66706 54.9561 0.950245C59.5277 0.184331 66.7547 -0.178987 72.4643 0.0861372C77.814 0.321803 84.6032 1.24483 87.5407 2.12857C90.4879 3.01232 94.5342 4.56379 96.538 5.58501C98.5417 6.60623 102.209 9.31638 104.689 11.6141C107.169 13.9119 111.05 18.4386 113.326 21.679C115.593 24.9194 118.452 29.564 119.658 31.9894C120.874 34.4148 122.674 38.7255 125.475 46.7185L97.997 46.7283C80.839 46.7283 69.0599 47.1408 66.6282 47.8183C64.323 48.4664 61.1229 50.5579 58.769 52.9735C55.9385 55.8702 53.7597 59.6801 51.1432 66.3573C49.1298 71.4831 46.9705 76.2553 46.3577 76.9525C45.5017 77.9246 40.3757 78.2192 4.86337 78.1406V73.2309C4.86337 70.5306 5.33026 64.0105 5.89441 58.7473C6.45856 53.4841 7.58686 46.5221 8.38445 43.2817C9.18205 40.0413 10.7286 34.9647 11.818 31.9894C12.9074 29.0141 14.8138 24.8212 16.0589 22.661C17.3039 20.5007 20.1052 16.8577 22.2937 14.5599C24.4725 12.2622 28.12 9.30656 30.3961 7.98094C32.6721 6.65532 37.3702 4.81909 40.8523 3.91571Z" fill="white"/>
<path d="M59.2748 57.1664C60.3545 55.6149 62.6597 53.5234 64.4202 52.5022C67.348 50.8034 70.0131 50.6561 127.907 50.6168L136.661 59.4445L106.022 59.7096C76.8316 59.9649 75.1975 60.0729 71.4916 62.0761C69.3517 63.2348 66.8422 65.0023 65.9084 66.0038C64.9844 67.0054 62.3387 72.465 55.8607 88.451L27.9255 88.6965C12.567 88.834 0 88.726 0 88.451C0 88.1761 0.768413 86.6442 3.40436 82.1273L24.9491 81.8524C44.9376 81.5971 46.6397 81.44 48.5851 79.6135C49.7329 78.5334 52.1645 73.6728 53.9932 68.8122C55.8218 63.9516 58.2048 58.708 59.2748 57.1664Z" fill="white"/>
<path d="M74.5458 68.4882C72.474 66.2101 72.474 66.1904 74.4096 64.747C76.2188 63.3919 76.6078 63.5785 79.983 67.5259C81.977 69.8531 85.8288 75.509 88.5231 80.1045C91.2271 84.7 94.6996 91.7602 96.2461 95.8156C97.7927 99.8612 99.7672 106.715 100.643 111.036C101.518 115.356 102.102 120.885 101.946 123.31C101.674 127.287 101.401 127.729 99.2128 127.729C96.8881 127.729 96.7519 127.405 96.1781 120.364C95.8571 116.309 94.6801 109.681 93.581 105.635C92.4722 101.58 90.1864 95.1773 88.4939 91.3968C86.8015 87.6164 83.4458 81.4301 81.0238 77.6497C78.6116 73.8692 75.6935 69.745 74.5458 68.4882Z" fill="white"/>
<path d="M50.8514 101.982C47.5249 97.2394 45.0835 93.0269 45.4239 92.6243C45.7643 92.2217 48.3711 91.8878 56.4151 91.8878L65.9376 105.144L62.3971 107.815C60.442 109.288 58.4091 110.515 57.8741 110.545C57.3392 110.574 54.178 106.725 50.8514 101.982Z" fill="white"/>
<path d="M58.8468 116.053C58.8468 115.258 61.2493 112.833 64.1965 110.653C67.1437 108.483 69.9839 106.666 70.5189 106.627C71.0539 106.587 74.6625 111.203 85.5954 127.238L79.5162 131.666C76.1702 134.111 72.9992 136.085 72.4643 136.065C71.9293 136.036 68.6417 131.853 65.1692 126.757C61.687 121.67 58.8468 116.849 58.8468 116.053Z" fill="white"/>
<path d="M76.0243 138.53L81.5296 134.602C86.996 130.704 87.0836 130.674 94.826 130.999C100.682 131.244 102.919 131.735 103.852 132.962C104.524 133.866 105.059 135.044 105.029 135.584C105.01 136.124 103.249 138.226 101.129 140.248C98.5417 142.713 95.4194 144.451 91.6746 145.512C87.3656 146.739 85.3036 146.867 82.6773 146.081C80.3235 145.374 78.7672 144.049 76.0243 138.53Z" fill="white"/>
</svg>
