<svg width="124" height="112" viewBox="0 0 124 112" fill="none" xmlns="http://www.w3.org/2000/svg">
<path d="M95.9101 59.3223H118.319C103.201 90.9307 61.8725 112 61.8725 112C61.8725 112 20.47 90.9277 5.34873 59.3223H29.2315L32.6411 56.9546L37.9928 38.2879L51.095 88.0667H58.4599L66.2132 59.3223H78.8528L82.2625 56.9546L87.1458 38.2879L92.032 56.9546L95.9101 59.3223ZM26.8239 52.1464L34.1146 23.9362H41.4025L54.5847 73.2186L59.9334 55.0482L63.269 52.1464H75.9857L83.739 23.9362H90.5614L98.3147 52.1464H120.724C122.663 47.3731 123.671 42.1066 123.671 36.8371C123.671 16.264 107.619 0 87.6172 0C77.3822 0 68.1552 4.31484 61.8725 11.9491C55.0501 4.31484 45.7462 0 35.5883 0C16.0492 0 0 16.2611 0 36.8371C0 42.1066 1.0081 47.3731 2.48168 52.1464H26.8239Z" fill="white"/>
</svg>
