<svg width="164" height="110" viewBox="0 0 164 110" fill="none" xmlns="http://www.w3.org/2000/svg">
<path d="M18.9063 65.3125L13.75 55H49.8438L45.7188 44.6875H12.0313L6.875 34.375H60.5L56.375 24.0625H5.9125L0 13.75H25.7813C25.7813 10.1033 27.2299 6.60591 29.8085 4.02728C32.3872 1.44866 35.8845 0 39.5313 0H122.031V27.5H142.656L163.281 55V89.375H149.531C149.531 94.8451 147.358 100.091 143.49 103.959C139.622 107.827 134.376 110 128.906 110C123.436 110 118.19 107.827 114.322 103.959C110.454 100.091 108.281 94.8451 108.281 89.375H80.7813C80.7813 94.8451 78.6083 100.091 74.7403 103.959C70.8724 107.827 65.6263 110 60.1563 110C54.6862 110 49.4401 107.827 45.5722 103.959C41.7042 100.091 39.5313 94.8451 39.5313 89.375H25.7813V65.3125H18.9063ZM128.906 99.6875C131.641 99.6875 134.264 98.601 136.198 96.667C138.132 94.7331 139.219 92.11 139.219 89.375C139.219 86.64 138.132 84.0169 136.198 82.083C134.264 80.149 131.641 79.0625 128.906 79.0625C126.171 79.0625 123.548 80.149 121.614 82.083C119.68 84.0169 118.594 86.64 118.594 89.375C118.594 92.11 119.68 94.7331 121.614 96.667C123.548 98.601 126.171 99.6875 128.906 99.6875ZM139.219 37.8125H122.031V55H152.694L139.219 37.8125ZM60.1563 99.6875C62.8913 99.6875 65.5143 98.601 67.4483 96.667C69.3823 94.7331 70.4688 92.11 70.4688 89.375C70.4688 86.64 69.3823 84.0169 67.4483 82.083C65.5143 80.149 62.8913 79.0625 60.1563 79.0625C57.4212 79.0625 54.7982 80.149 52.8642 82.083C50.9302 84.0169 49.8438 86.64 49.8438 89.375C49.8438 92.11 50.9302 94.7331 52.8642 96.667C54.7982 98.601 57.4212 99.6875 60.1563 99.6875Z" fill="white"/>
</svg>
