<svg width="143" height="100" viewBox="0 0 143 100" fill="none" xmlns="http://www.w3.org/2000/svg">
<path d="M18.249 16.1165C18.356 15.8075 18.1421 10.3892 21.1602 6.12353C24.1782 1.85782 28.135 1.22807 31.058 0.705248C34.5989 0.0754908 43.1423 -0.958262 44.4968 1.95288C45.8514 4.86402 44.8058 6.43247 46.9921 7.26423C49.1784 8.09598 45.2216 12.9915 45.2216 12.9915L18.249 16.1165ZM123.11 16.0095C123.11 16.0095 123.965 10.7457 120.959 7.19293C116.444 1.83406 109.374 0.099255 102.684 0.099255C100.533 0.099255 97.9549 0.515132 97.1231 3.08169C96.6478 4.56697 96.3151 6.37306 95.2695 6.57506C94.2358 6.78894 116.337 13.6212 123.11 16.0095Z" fill="#FEFEFE"/>
<path d="M72.8591 5.81348C90.8488 5.99171 106.593 5.99197 116.491 9.77051C125.367 13.1571 131.414 22.3662 135.561 40.3438C139.696 58.333 142.893 79.958 142.394 87.1113C141.669 97.5438 126.923 104.198 115.956 96.1064C107.223 89.6663 105.523 73.2687 101.032 70.9277C96.5397 68.5871 44.5347 68.2312 41.3005 70.75C37.7478 73.5067 33.0299 92.5177 25.6511 97.5439C18.2723 102.57 1.55445 99.885 0.294678 89.6309C-0.810367 80.5885 1.19803 61.5768 6.23608 42.1494C11.2741 22.722 15.1473 13.097 26.9226 9.94824C36.369 7.41736 54.8815 5.63525 72.8591 5.81348ZM8.73413 70.8037C8.1401 64.5308 8.6629 62.6528 7.40405 62.8779C6.08513 63.1156 2.59114 80.6538 5.1814 88.0684C7.34398 94.2469 15.6258 94.5913 18.739 93.7002C24.9413 91.9298 26.8901 85.9176 25.4763 85.252C24.0739 84.5873 19.1551 89.2914 14.5095 87.1055C9.32894 84.6578 9.39951 77.7666 8.73413 70.8037ZM117.635 80.4277C113.191 73.1678 107.487 63.615 105.705 65.8369C104.85 66.9063 106.822 68.4985 108.224 71.9795C109.626 75.4611 113.239 86.987 116.744 90.207C121.116 94.2112 124.527 93.4626 125.192 92.2031C125.857 90.9434 122.078 87.6872 117.635 80.4277ZM87.3035 41.5156C83.5564 41.5156 80.5184 44.5528 80.5183 48.2998C80.5183 52.0469 83.5564 55.085 87.3035 55.085C91.0506 55.085 94.0886 52.0469 94.0886 48.2998C94.0885 44.5528 91.0505 41.5156 87.3035 41.5156ZM52.4187 41.2959C48.6717 41.296 45.6346 44.3331 45.6345 48.0801C45.6345 51.8271 48.6717 54.8651 52.4187 54.8652C56.1658 54.8652 59.2039 51.8272 59.2039 48.0801C59.2038 44.333 56.1658 41.2959 52.4187 41.2959ZM107.727 33.4287C104.709 33.429 102.261 35.876 102.261 38.8945C102.262 41.9129 104.709 44.3601 107.727 44.3604C110.746 44.3603 113.193 41.9131 113.193 38.8945C113.193 35.8759 110.746 33.4287 107.727 33.4287ZM30.9539 14.7197C26.9502 14.8031 27.0329 18.141 27.033 18.7949C27.033 19.4448 27.0098 23.8751 27.0095 23.9277C27.0095 23.9277 22.4708 23.8805 21.6267 23.9043C20.7831 23.9281 17.6228 23.9762 17.6228 28.0518C17.6231 31.9011 20.89 32.1745 21.6267 32.1982C22.36 32.2219 26.9356 32.2217 26.9851 32.2217C26.9849 32.2412 26.9498 36.5369 26.9617 37.2363C26.9736 37.9376 27.1045 41.24 31.1082 41.2402C35.4665 41.2402 35.257 37.2622 35.2556 37.2363L35.2791 32.2578C35.3022 32.258 39.3689 32.2931 40.0798 32.2812C41.1019 32.2575 44.1073 31.984 44.155 27.9092C44.1907 23.8822 40.5687 23.9872 40.0681 23.9873C39.584 23.9873 35.3567 23.9642 35.3035 23.9639L35.3269 18.7949C35.3275 18.7642 35.4049 14.6251 30.9539 14.7197ZM118.625 23.8418C115.606 23.842 113.159 26.2892 113.159 29.3076C113.159 32.3262 115.606 34.7732 118.625 34.7734C121.643 34.7734 124.091 32.3263 124.091 29.3076C124.09 26.2891 121.643 23.8418 118.625 23.8418ZM96.8845 22.9561C93.8658 22.9561 91.4187 25.4032 91.4187 28.4219C91.4188 31.4405 93.8659 33.8877 96.8845 33.8877C99.903 33.8875 102.35 31.4404 102.35 28.4219C102.35 25.4033 99.9031 22.9562 96.8845 22.9561ZM107.819 12.707C104.8 12.7071 102.353 15.1542 102.353 18.1729C102.354 21.1913 104.801 23.6386 107.819 23.6387C110.838 23.6386 113.285 21.1913 113.285 18.1729C113.285 15.1542 110.838 12.7071 107.819 12.707Z" fill="#FEFEFE"/>
</svg>
