<svg width="140" height="140" viewBox="0 0 140 140" fill="none" xmlns="http://www.w3.org/2000/svg">
<path d="M130.399 72.9411L103.449 60.5356V49.3356C100.564 47.8632 97.9373 45.9325 95.6709 43.6189V60.4967L70.6654 72.1633V42.2578C71.1341 42.2371 71.5952 42.1317 72.0265 41.9467L89.4487 33.9356C88.4814 31.4381 87.8536 28.8222 87.582 26.1578L70.3931 33.9356L50.5598 24.9911L70.3931 15.8522L87.4265 23.63V23.3189C87.4292 20.6912 87.7823 18.0755 88.4765 15.5411L71.9487 8.07447C71.4368 7.83756 70.8794 7.71484 70.3154 7.71484C69.7513 7.71484 69.1939 7.83756 68.682 8.07447L39.5154 21.4911C38.8403 21.8035 38.269 22.303 37.8693 22.9302C37.4695 23.5575 37.258 24.2862 37.2598 25.03V60.5745L10.4265 72.9411C9.75143 73.2535 9.18015 73.753 8.78037 74.3802C8.38058 75.0075 8.16907 75.7362 8.17091 76.48V114.513C8.16907 115.257 8.38058 115.986 8.78037 116.613C9.18015 117.24 9.75143 117.74 10.4265 118.052L39.5931 131.469C40.1051 131.706 40.6624 131.829 41.2265 131.829C41.7906 131.829 42.3479 131.706 42.8598 131.469L70.3931 118.791L97.9265 131.469C98.4384 131.706 98.9957 131.829 99.5598 131.829C100.124 131.829 100.681 131.706 101.193 131.469L130.36 118.052C131.035 117.74 131.606 117.24 132.006 116.613C132.406 115.986 132.617 115.257 132.615 114.513V76.48C132.621 75.7404 132.415 75.0146 132.022 74.3878C131.63 73.761 131.066 73.2591 130.399 72.9411ZM21.5098 76.48L41.382 67.3022L61.2542 76.4411L41.2265 85.5411L21.5098 76.48ZM41.2265 123.652V93.7467C41.7674 93.704 42.2953 93.5589 42.782 93.3189L66.4265 82.43V111.986L41.2265 123.652ZM79.7265 76.48L99.5987 67.3411L119.471 76.48L99.5987 85.5411L79.7265 76.48ZM99.7154 123.652V93.7467C100.207 93.7044 100.684 93.5586 101.115 93.3189L124.76 82.43V111.986L99.7154 123.652Z" fill="white"/>
<path d="M116.589 42.7834C127.328 42.7834 136.033 34.0778 136.033 23.339C136.033 12.6001 127.328 3.89453 116.589 3.89453C105.85 3.89453 97.1445 12.6001 97.1445 23.339C97.1445 34.0778 105.85 42.7834 116.589 42.7834Z" fill="white"/>
</svg>
