<svg width="160" height="233" viewBox="0 0 160 233" fill="none" xmlns="http://www.w3.org/2000/svg">
<path d="M142.417 54.1699C139.256 45.7182 134.266 38.4768 128.065 32.7163C132.353 37.3813 135.842 42.9364 138.203 49.2475C147.893 75.1523 135.009 103.879 109.428 113.409C83.8453 122.938 55.2514 109.664 45.562 83.7577C35.8804 57.8727 48.7367 29.1729 74.2797 19.6212C72.6875 20.0615 71.1012 20.5707 69.5248 21.1578C40.1755 32.0904 25.2268 64.5967 36.1363 93.7616C47.0453 122.926 79.6813 137.707 109.03 126.774C138.378 115.842 153.326 83.3341 142.417 54.1699Z" fill="#8D8C8B"/>
<path d="M142.458 92.5858C125.248 125.993 86.9626 139.472 58.2741 118.302C41.9509 106.214 36.5035 94.8701 32.583 72.1302C32.4551 78.9956 33.5934 85.9956 36.143 92.8132C47.0579 122.005 79.7115 136.799 109.076 125.856C125.142 119.869 136.895 107.417 142.458 92.5858Z" fill="#B7B4AD"/>
<path d="M39.8236 49.0093C37.7216 57.909 37.1098 67.4985 37.1741 77.0861C37.8039 57.5164 49.8677 39.4262 69.1514 32.2416C94.7408 22.7073 123.343 35.9893 133.035 61.9034C137.178 72.9795 137.188 84.567 133.85 94.9524C137.607 91.179 141.399 87.4076 144.768 83.3277C146.956 73.1819 146.366 62.3269 142.465 51.8961C131.553 22.7207 98.9072 7.9339 69.5506 18.8709C56.2866 23.8118 45.9649 33.1587 39.6387 44.6128C40.0898 45.9582 40.1968 47.4296 39.8236 49.0093Z" fill="#68615D"/>
<path opacity="0.5" d="M107.857 114.066C83.126 123.278 55.4857 110.445 46.1179 85.4026C36.751 60.3612 49.2061 32.5927 73.9353 23.3801C98.6656 14.1677 126.306 27.0011 135.673 52.0425C145.041 77.0848 132.587 104.854 107.857 114.066Z" fill="#D3CFC4"/>
<path opacity="0.3" d="M142.466 51.8962C131.554 22.7208 98.9077 7.93403 69.5512 18.8711C56.2872 23.812 45.9654 33.1588 39.6393 44.6129C40.0904 45.9578 40.1973 47.4297 39.8241 49.0094C37.7221 57.9091 37.1104 67.4986 37.1747 77.0862C37.5095 66.6805 41.078 56.6935 47.2444 48.5419C55.4796 31.4373 76.5371 19.938 95.3115 23.3721C106.084 25.0341 116.014 29.5318 123.432 37.4883C136.066 52.0802 140.923 70.6844 139.485 89.2244C141.313 87.3097 143.093 85.3568 144.768 83.3283C146.956 73.182 146.367 62.3265 142.466 51.8962Z" fill="#68615D"/>
<path opacity="0.5" d="M138.747 65.6092C138.443 60.9439 137.463 56.2382 135.737 51.625C126.37 26.5814 98.7264 13.7469 73.994 22.9601C49.2622 32.1734 36.8061 59.9443 46.1743 84.9881C48.0917 90.1125 50.784 94.7149 54.0498 98.7326C77.707 77.9721 106.873 64.134 138.747 65.6092Z" fill="url(#paint0_radial_1723_1109)"/>
<path d="M43.263 86.116C33.3301 59.4862 46.6457 29.8293 72.9485 20.0044C99.2499 10.1802 128.729 23.8513 138.662 50.4816C148.596 77.1109 135.279 106.768 108.977 116.593C82.6758 126.417 53.197 112.746 43.263 86.116ZM135.879 51.521C126.516 26.4174 98.7476 13.52 73.9796 22.7712C49.2134 32.0222 36.6814 59.9724 46.0463 85.0768C55.4101 110.181 83.178 123.078 107.945 113.827C132.713 104.576 145.245 76.6248 135.879 51.521Z" fill="#58514A"/>
<path d="M143.809 48.5601C154.614 77.5278 139.699 109.95 110.559 120.834C81.4206 131.718 48.9217 117.005 38.1172 88.0367C27.3113 59.0705 42.226 26.6488 71.3643 15.7641C100.505 4.88026 133.004 19.5937 143.809 48.5601ZM108.81 116.147C135.351 106.234 148.934 76.7045 139.093 50.3204C129.251 23.9375 99.6541 10.5388 73.1156 20.4515C46.5764 30.3651 32.9906 59.8939 42.8319 86.2781C52.6743 112.662 82.2713 126.061 108.81 116.147Z" fill="url(#paint1_linear_1723_1109)" stroke="black" stroke-width="0.905461"/>
<path d="M138.161 87.0916C132.97 99.8543 122.641 110.513 108.706 115.718C82.3867 125.551 53.034 112.261 43.2732 86.0911C38.1261 72.2904 39.4459 57.6249 45.6989 45.4C34.2891 65.0283 36.2461 89.7284 53.8133 105.669C67.1863 117.706 84.7446 125.656 103.185 120.661C119.414 116.083 133.614 102.924 138.161 87.0916Z" fill="#F2F2F4"/>
<path d="M147.188 64.3442C146.797 62.4994 146.342 60.6554 145.82 58.814L145.82 58.8118C139.399 36.456 120.374 16.2122 96.9382 13.4952L96.9373 13.495C72.7698 10.271 50.7484 25.7367 39.0791 46.503C44.9591 32.8084 56.2233 21.4193 71.2903 15.7878C100.456 4.88934 132.982 19.6216 143.797 48.6264C145.726 53.8034 146.833 59.0902 147.188 64.3442Z" fill="#F2F2EC" stroke="#58514A" stroke-width="0.905461"/>
<path d="M10.216 191.096L6.04409 192.522C4.52697 197.235 6.09623 202.38 9.98148 205.431L12.4265 207.352C14.0604 208.635 15.905 209.627 17.8792 210.283L18.5453 210.505C19.9138 210.96 21.4206 210.735 22.602 209.901L24.4331 208.608L28.5669 203.117L18.2203 196.133L10.216 191.096Z" fill="url(#paint2_linear_1723_1109)"/>
<path d="M27.0716 206.035C27.6507 205.41 28.1152 204.717 28.6011 203.988C28.994 203.399 29.3997 202.791 29.8769 202.223C29.9825 202.091 30.1091 201.957 30.248 201.812C30.6613 201.37 31.1274 200.87 31.1718 200.397C31.2067 200.046 31.0278 199.841 30.7795 199.555C30.6965 199.463 30.6116 199.362 30.5258 199.251L29.3527 201.118L28.5182 201.106C27.6306 200.878 26.7737 200.634 25.9376 200.369C24.6106 203.602 21.5941 206.734 16.8944 206.528C12.8234 206.616 7.95277 203.944 9.52768 200.057C11.4838 197.133 16.8243 199.847 19.8536 197.93C19.5735 197.793 19.2948 197.657 19.0097 197.513C15.6187 195.784 12.9983 193.997 10.0993 191.842L10.0273 191.757L9.59301 190.975L9.65574 190.879L10.8334 189.209C9.68299 189.038 9.07141 189.33 8.40254 190.245C8.06908 190.706 7.72423 191.154 7.37734 191.598C6.82805 192.309 6.2549 193.04 5.76125 193.79C4.06934 196.356 3.36232 198.659 5.40353 201.611C6.69794 203.474 8.55448 205.776 11.4881 207.05C14.2881 208.553 15.565 208.661 18.6515 208.917L19.5241 208.992C22.5183 209.25 24.9919 208.286 27.0716 206.035Z" fill="url(#paint3_linear_1723_1109)"/>
<path d="M17.6987 203.689C18.9339 203.073 19.9939 202.118 20.5896 200.693C19.2035 200.062 17.8679 199.35 16.5806 198.619C16.5401 199.194 16.4141 199.723 16.2358 200.116C15.6475 200.756 14.5471 201.335 13.4385 201.23C13.9412 201.555 14.4543 201.879 14.9894 202.196C15.9033 202.74 16.8025 203.234 17.6987 203.689Z" fill="white"/>
<path d="M16.4388 200.415C16.6177 200.022 16.7438 199.493 16.7837 198.918C15.1083 197.967 13.5258 196.979 12.1056 196.055C11.7812 195.846 11.471 195.614 11.1577 195.387C10.5165 194.921 9.88422 194.44 9.27352 193.961C8.75502 193.553 8.23199 193.14 7.70319 192.752C7.61804 192.686 7.53334 192.621 7.43172 192.556C7.1712 192.369 6.88605 192.172 6.65081 191.942L5.20427 194.376L5.50177 195.097C8.18191 197.53 10.6598 199.602 13.6411 201.53C14.7499 201.634 15.8505 201.055 16.4388 200.415Z" fill="#807E86"/>
<path d="M26.9712 202.927C26.6334 202.813 26.2827 202.737 25.9086 202.657C25.4981 202.57 25.081 202.478 24.6694 202.335C23.4572 201.907 22.2511 201.388 21.0723 200.868C20.8314 200.761 20.588 200.654 20.3483 200.548L20.1517 200.464C20.0622 200.422 19.9719 200.378 19.881 200.337C19.2851 201.764 18.2247 202.719 16.9889 203.336C19.4858 204.603 21.966 205.546 24.7343 206.29L25.1803 206.267L26.9712 202.927Z" fill="#E9E8E3"/>
<path d="M38.5071 142.7C38.5071 142.7 13.1421 176.504 7.23537 191.365C6.94897 192.086 11.5687 195.402 13.2621 196.528C31.5052 172.59 37.4564 166.201 49.1781 146.004C45.9079 144.287 41.8914 144.132 38.5071 142.7Z" fill="#5A3700"/>
<path d="M52.4997 148.519C51.4051 147.92 50.0101 146.861 48.8962 146.276C37.1793 166.47 13.292 196.523 13.292 196.523C13.292 196.523 19.2765 200.22 22.4482 201.69C35.9373 182.31 41.4508 169.005 52.4997 148.519Z" fill="url(#paint4_linear_1723_1109)"/>
<path d="M27.5914 203.818C38.8743 194.92 56.1233 151.253 56.1233 151.253C54.8807 150.546 53.3468 149.266 52.072 148.569C41.0306 169.05 35.9733 182.354 22.4939 201.73C24.1496 202.497 26.13 204.97 27.5914 203.818Z" fill="#774E0E"/>
<path d="M57.6575 139.426C57.3894 139.919 57.1258 140.415 56.8597 140.909C58.1394 141.609 59.4087 142.316 60.6561 143.025L62.0643 140.435C62.0146 140.423 61.9686 140.401 61.9236 140.381C60.1366 139.622 58.3851 138.672 56.6992 137.756C55.7124 137.222 54.7019 136.671 53.7023 136.167C52.6435 135.641 51.5367 135.127 50.4644 134.631C48.6297 133.782 46.7533 132.919 44.9746 131.89L43.5099 134.326C46.9034 135.764 50.2594 137.403 53.5385 139.125C53.7066 138.834 53.8738 138.54 54.0448 138.251C53.8739 138.539 53.7072 138.834 53.5385 139.125C54.656 139.712 55.7612 140.309 56.8597 140.909C57.1265 140.415 57.3894 139.919 57.6575 139.426Z" fill="#1E2123"/>
<path d="M7.43786 194.187L7.70316 193.739C7.72488 193.762 7.74659 193.786 7.77404 193.807" fill="#908F93"/>
<path d="M7.4417 194.181L7.39542 194.261C7.34788 194.22 7.3157 194.183 7.27724 194.148C7.329 194.154 7.38422 194.165 7.4417 194.181Z" fill="#908F93"/>
<path d="M7.81287 193.673L7.77745 193.812C7.74944 193.792 7.72849 193.768 7.70687 193.744L7.75806 193.662C7.778 193.661 7.79203 193.668 7.81287 193.673Z" fill="#908F93"/>
<path d="M7.6097 193.614C7.6567 193.624 7.70608 193.637 7.75675 193.655Z" fill="#908F93"/>
<path d="M7.60991 193.626C7.5932 193.619 7.57883 193.618 7.57257 193.621L7.59466 193.605C7.59699 193.611 7.60684 193.62 7.60991 193.626Z" fill="#908F93"/>
<path d="M55.5926 119.439L50.7229 127.933C52.4248 128.577 54.0627 129.254 55.6506 129.978C57.0078 127.615 58.6462 125.394 60.3258 123.131C58.681 122.049 57.1092 120.805 55.5926 119.439Z" fill="#908F93"/>
<path d="M62.126 133.439L66.3201 126.162C65.6138 125.913 64.9254 125.625 64.2464 125.315C62.8172 127.616 61.281 129.817 59.7726 132.045C60.5701 132.487 61.3538 132.953 62.126 133.439Z" fill="#908F93"/>
<path d="M66.9525 125.065C66.3077 124.867 65.6129 124.596 64.888 124.271C63.6543 123.718 62.3325 123.008 61.0223 122.221C59.2353 121.152 57.4653 119.948 55.953 118.818L55.5866 119.454C57.105 120.825 58.6801 122.072 60.3275 123.157C61.5829 123.984 62.8779 124.719 64.2302 125.335C64.9103 125.645 65.6009 125.934 66.3088 126.184L66.9525 125.065Z" fill="#6A696D"/>
<path d="M59.7566 132.042C61.2667 129.814 62.8036 127.611 64.2337 125.31C62.8841 124.696 61.5906 123.962 60.3373 123.138C58.6576 125.401 57.0192 127.621 55.6619 129.984C57.0651 130.626 58.43 131.305 59.7566 132.042Z" fill="#A6A5AA"/>
<path d="M62.1263 133.422C61.3518 132.935 60.5663 132.467 59.7669 132.023C58.4382 131.284 57.0711 130.603 55.6658 129.96C54.0754 129.234 52.4347 128.556 50.7301 127.91L50.4201 128.45L54.9932 131.189L58.7938 133.466L61.0916 135.553L62.1263 133.422Z" fill="#6A696D"/>
<path d="M28.4938 203.425C26.6172 202.632 24.1199 202.071 22.35 201.138C18.9627 199.352 15.7428 197.319 12.6158 195.051C10.8244 193.754 9.0636 192.377 7.31523 190.933L6.74689 191.7C6.76868 191.7 6.78364 191.708 6.80671 191.715L6.76146 191.853C6.95312 192.061 7.22252 192.263 7.47391 192.449C7.57279 192.525 7.66439 192.595 7.75345 192.66C8.27479 193.068 8.78057 193.49 9.28905 193.92C9.9596 194.475 10.6535 195.033 11.3603 195.567C11.5708 195.725 11.7771 195.892 11.9912 196.043C14.4898 197.791 17.4788 199.796 20.6731 201.399L20.8657 201.496C21.1397 201.633 21.4169 201.772 21.6945 201.91C22.8043 202.464 23.9393 203.013 25.0746 203.486C25.4415 203.639 25.8264 203.748 26.2283 203.865C26.6296 203.982 27.6407 204.166 28.0385 204.33L28.4938 203.425Z" fill="#1E2123"/>
<path d="M55.3694 131.183C48.4437 123.86 41.7726 133.151 38.0139 143.22L48.7084 146.418C50.9287 141.844 56.2908 136.971 55.3694 131.183Z" fill="#7F7C75"/>
<path d="M57.8399 140.145C58.3137 139.563 59.7951 134.234 59.0598 132.714C58.8177 132.574 54.141 129.814 53.9057 129.678C55.235 133.742 50.1991 144.901 48.396 146.149L53.8776 149.461C56.0167 146.705 56.8333 144.131 57.8399 140.145Z" fill="#F6F3EA"/>
<path d="M56.5889 131.06C56.1049 137.796 52.7391 141.633 49.7862 146.809L56.1082 151.301C60.642 142.298 67.8805 137.792 56.5889 131.06Z" fill="#E1DAD2"/>
<path opacity="0.2" d="M8.66124 194.857C8.14216 194.449 7.61856 194.036 7.08922 193.648C7.00397 193.582 6.91918 193.517 6.81746 193.451C6.55668 193.265 6.27125 193.068 6.03571 192.838L4.59204 195.267L4.89047 195.986C5.82618 196.835 6.73759 197.634 7.65215 198.404C8.29888 197.411 9.0494 196.548 10.0718 195.945C9.59262 195.587 9.12399 195.218 8.66124 194.857Z" fill="#211915"/>
<path opacity="0.1" d="M25.9783 206.743L28.0705 204.321C27.7623 204.16 27.04 204.48 26.6933 204.34C26.3127 204.186 26.1637 204.089 25.7886 203.889C24.6352 203.269 23.2756 202.788 22.169 202.095C22.2374 203.251 21.6731 203.473 20.5507 204.018C22.1342 204.993 23.7696 205.861 25.5508 206.675L25.9783 206.743Z" fill="white"/>
<path opacity="0.3" d="M38.9246 144.534L8.30638 192.049C8.32446 192.048 10.1893 193.17 10.6791 193.528C11.4318 194.067 12.1066 194.772 12.905 195.273C24.4562 175.998 30.6767 165.254 42.0899 145.862C40.7279 145.252 40.2381 145.251 38.9246 144.534Z" fill="#804D00"/>
<path d="M27.1435 203.465C27.5173 203.546 27.6761 203.783 28.0461 203.91L56.1194 151.269C56.07 151.255 55.7141 150.392 55.6692 150.371C55.3347 150.231 53.2914 149.181 52.9615 149.027C39.0638 169.388 36.7436 181.115 26.2409 203.013C26.3555 203.04 26.2409 203.016 27.1435 203.465Z" fill="#9B6400"/>
<path opacity="0.1" d="M65.704 127.118L66.9376 124.976C66.5311 124.851 66.102 124.695 65.6608 124.516C63.0993 123.485 60.0396 121.639 57.4323 119.813C56.9142 119.45 56.4106 119.088 55.9357 118.733L54.8024 120.708L50.3968 128.391L51.781 129.22C53.3751 126.7 55.0614 124.207 56.4793 121.636C59.2256 123.224 61.8192 125.007 64.5773 126.521C63.1811 129.096 61.3129 132.468 59.9046 135.109L60.8087 135.557L65.704 127.118Z" fill="#211915"/>
<path opacity="0.5" d="M57.4687 148.499C58.4052 146.776 63.1593 139.949 63.0682 138.416C62.936 136.188 59.3937 133.464 56.19 131.203C50.7685 127.379 48.4262 128.924 47.5168 129.368C46.6074 129.811 45.7992 130.487 44.7928 131.596C43.8202 132.666 40.7128 136.061 38.0147 143.223L39.841 143.681C40.817 141.705 45.5403 133.258 46.7257 131.678C51.7739 133.445 55.0505 139.157 56.9102 146.189C55.7495 147.54 54.5334 148.755 53.3102 149.915L55.1148 152.083C56.0902 150.625 56.8711 149.596 57.4687 148.499Z" fill="url(#paint5_linear_1723_1109)"/>
<g filter="url(#filter0_f_1723_1109)">
<ellipse cx="16.7347" cy="24.2555" rx="16.7347" ry="24.2555" transform="matrix(0.893113 0.448262 -0.449687 0.89397 116.419 54.8124)" fill="#F7F7F5"/>
</g>
<g filter="url(#filter1_f_1723_1109)">
<path d="M62.1459 108.896C46.9924 94.4355 26.474 58.2597 65.6282 29.2421C59.9915 41.318 51.4036 74.155 62.1459 108.896Z" fill="white"/>
<path d="M62.1459 108.896C46.9924 94.4355 26.474 58.2597 65.6282 29.2421C59.9915 41.318 51.4036 74.155 62.1459 108.896Z" stroke="white" stroke-width="0.336174"/>
</g>
<defs>
<filter id="filter0_f_1723_1109" x="99.8712" y="58.9642" width="41.1729" height="50.0636" filterUnits="userSpaceOnUse" color-interpolation-filters="sRGB">
<feFlood flood-opacity="0" result="BackgroundImageFix"/>
<feBlend mode="normal" in="SourceGraphic" in2="BackgroundImageFix" result="shape"/>
<feGaussianBlur stdDeviation="1.04128" result="effect1_foregroundBlur_1723_1109"/>
</filter>
<filter id="filter1_f_1723_1109" x="39.7104" y="25.9401" width="29.2406" height="86.6898" filterUnits="userSpaceOnUse" color-interpolation-filters="sRGB">
<feFlood flood-opacity="0" result="BackgroundImageFix"/>
<feBlend mode="normal" in="SourceGraphic" in2="BackgroundImageFix" result="shape"/>
<feGaussianBlur stdDeviation="1.58456" result="effect1_foregroundBlur_1723_1109"/>
</filter>
<radialGradient id="paint0_radial_1723_1109" cx="0" cy="0" r="1" gradientTransform="matrix(-23.2985 -57.9473 97.3603 -38.9577 94.4271 69.8913)" gradientUnits="userSpaceOnUse">
<stop offset="0.1452" stop-color="#E3DFD4"/>
<stop offset="1" stop-color="#E3DFD4"/>
</radialGradient>
<linearGradient id="paint1_linear_1723_1109" x1="49.4505" y1="40.7279" x2="135.802" y2="99.5487" gradientUnits="userSpaceOnUse">
<stop stop-color="#BCB3A2"/>
<stop offset="1" stop-color="#F6F3EE"/>
</linearGradient>
<linearGradient id="paint2_linear_1723_1109" x1="27.8824" y1="206.014" x2="3.65999" y2="203.324" gradientUnits="userSpaceOnUse">
<stop stop-color="white"/>
<stop offset="1" stop-color="#39393A" stop-opacity="0.97"/>
</linearGradient>
<linearGradient id="paint3_linear_1723_1109" x1="30.3483" y1="203.907" x2="3.95002" y2="200.656" gradientUnits="userSpaceOnUse">
<stop stop-color="#908F93" stop-opacity="0"/>
<stop offset="1" stop-color="#2C2C2D"/>
</linearGradient>
<linearGradient id="paint4_linear_1723_1109" x1="46.4863" y1="146.911" x2="20.9313" y2="200.651" gradientUnits="userSpaceOnUse">
<stop offset="0.0921878" stop-color="#B06C0B"/>
<stop offset="1" stop-color="#4A2D05"/>
</linearGradient>
<linearGradient id="paint5_linear_1723_1109" x1="41.8941" y1="134.766" x2="60.8021" y2="143.607" gradientUnits="userSpaceOnUse">
<stop stop-color="#515150"/>
<stop offset="1" stop-color="#3B3A2D" stop-opacity="0"/>
</linearGradient>
</defs>
</svg>
